<?xml version="1.0" standalone="no"?>
<!DOCTYPE svg PUBLIC "-//W3C//DTD SVG 20010904//EN"
 "http://www.w3.org/TR/2001/REC-SVG-20010904/DTD/svg10.dtd">
<svg version="1.0" xmlns="http://www.w3.org/2000/svg" width="128.000000pt" height="128.000000pt" viewBox="0 0 128.000000 128.000000" preserveAspectRatio="xMidYMid meet">

<g transform="translate(0.000000,128.000000) scale(0.100000,-0.100000)" fill="#000000" stroke="none">
<path d="M620 1200 c0 -33 3 -40 20 -40 17 0 20 7 20 40 0 33 -3 40 -20 40
-17 0 -20 -7 -20 -40z"></path>
<path d="M394 1159 c-3 -6 6 -24 22 -40 21 -22 30 -26 41 -17 11 9 9 16 -13
40 -30 30 -39 34 -50 17z"></path>
<path d="M836 1142 c-22 -24 -24 -31 -13 -40 11 -9 20 -5 41 17 16 16 25 34
22 40 -11 17 -20 13 -50 -17z"></path>
<path d="M475 1047 c-26 -26 -35 -43 -35 -68 1 -71 70 -171 160 -234 l40 -28
40 28 c90 63 159 163 160 234 0 25 -9 42 -35 68 -33 33 -39 35 -81 30 -25 -2
-54 -13 -64 -22 -19 -17 -21 -17 -40 0 -10 9 -39 20 -64 22 -42 5 -48 3 -81
-30z m136 -38 l29 -31 29 31 c35 37 80 42 111 11 42 -42 15 -114 -73 -198 -31
-28 -61 -52 -67 -52 -6 0 -38 25 -70 56 -88 83 -112 152 -70 194 31 31 76 26
111 -11z"></path>
<path d="M300 940 c0 -17 7 -20 40 -20 33 0 40 3 40 20 0 17 -7 20 -40 20 -33
0 -40 -3 -40 -20z"></path>
<path d="M900 940 c0 -17 7 -20 40 -20 33 0 40 3 40 20 0 17 -7 20 -40 20 -33
0 -40 -3 -40 -20z"></path>
<path d="M284 626 c-7 -19 13 -106 38 -165 10 -25 50 -91 88 -147 l70 -103 0
-86 c0 -78 2 -85 20 -85 19 0 20 7 20 92 l0 91 -79 118 c-54 79 -87 140 -100
184 -25 82 -26 75 2 75 18 0 26 -10 40 -49 21 -60 109 -196 132 -204 9 -4 67
-7 128 -7 91 0 116 4 134 18 30 24 100 137 121 194 13 37 22 48 38 48 20 0 21
-3 13 -40 -15 -65 -53 -139 -123 -239 l-66 -95 0 -93 c0 -86 1 -93 20 -93 18
0 20 7 20 86 l0 86 78 116 c58 88 84 137 101 194 31 106 29 113 -38 113 l-54
0 -28 -70 c-29 -71 -96 -176 -117 -183 -7 -2 -5 9 5 28 21 44 11 97 -27 135
-26 25 -38 30 -80 30 -42 0 -54 -5 -80 -30 -38 -38 -48 -91 -27 -135 11 -21
12 -30 4 -28 -21 7 -104 139 -123 197 l-19 56 -53 3 c-40 2 -54 -1 -58 -12z
m407 -105 c33 -27 33 -95 0 -122 -32 -27 -77 -24 -106 6 -71 70 29 179 106
116z"></path>
</g>
</svg>
