<?xml version="1.0" standalone="no"?>
<!DOCTYPE svg PUBLIC "-//W3C//DTD SVG 20010904//EN"
 "http://www.w3.org/TR/2001/REC-SVG-20010904/DTD/svg10.dtd">
<svg version="1.0" xmlns="http://www.w3.org/2000/svg"
 width="5000.000000pt" height="5000.000000pt" viewBox="0 0 5000.000000 5000.000000"
 preserveAspectRatio="xMidYMid meet">
<metadata>
Created by potrace 1.16, written by Peter Selinger 2001-2019
</metadata>
<g transform="translate(0.000000,5000.000000) scale(0.100000,-0.100000)"
fill="#000000" stroke="none">
<path d="M6315 37419 c-770 -53 -1417 -230 -1905 -519 -308 -182 -528 -395
-613 -593 -27 -63 -32 -86 -35 -182 -10 -287 116 -559 337 -730 l57 -43 13
-103 c34 -271 141 -712 236 -974 87 -240 188 -456 313 -670 132 -228 276 -531
577 -1215 597 -1357 1034 -2151 1518 -2755 133 -166 219 -259 466 -505 371
-369 564 -585 911 -1022 350 -440 432 -538 535 -642 161 -163 294 -252 440
-295 202 -60 370 -47 1045 79 469 88 858 147 1075 165 44 4 91 9 105 11 53 10
645 16 635 7 -5 -5 -39 -20 -75 -33 -203 -72 -555 -234 -755 -348 -750 -428
-1224 -1008 -1359 -1664 -160 -782 474 -1702 1776 -2576 838 -562 1839 -1017
2403 -1091 83 -11 247 -26 395 -36 350 -23 529 -38 613 -51 250 -37 437 -94
664 -204 183 -88 285 -148 583 -344 347 -228 572 -337 775 -378 85 -17 309
-14 445 6 64 9 178 17 260 17 202 0 359 -30 660 -126 392 -125 780 -138 1149
-39 296 80 616 251 916 490 127 102 453 423 577 569 149 176 359 452 609 803
50 70 94 130 98 134 3 4 6 -84 6 -195 0 -223 9 -279 66 -392 65 -130 154 -766
157 -1125 2 -162 -3 -213 -38 -395 -65 -338 -9 -857 152 -1415 l51 -175 -12
-84 c-7 -50 -43 -179 -86 -310 -92 -282 -106 -335 -112 -441 -7 -106 3 -155
66 -324 106 -283 234 -703 266 -867 7 -41 16 -109 20 -152 9 -117 42 -204 201
-529 188 -387 244 -532 244 -634 0 -263 288 -945 569 -1344 662 -942 1246
-1525 1611 -1606 89 -20 171 -11 273 32 331 138 817 628 1369 1381 200 274
258 367 375 598 211 419 312 698 328 910 13 160 54 270 253 673 149 302 181
385 194 517 20 207 131 599 286 1015 l65 175 0 115 c0 135 -12 188 -108 475
-65 195 -95 314 -95 383 0 22 14 84 31 138 50 163 115 439 143 604 39 236 49
348 49 545 -1 176 -6 227 -49 460 -27 150 -11 530 36 867 39 272 73 445 100
498 72 144 96 338 71 563 -4 31 -6 57 -5 57 1 0 46 -62 100 -137 169 -238 466
-633 574 -763 141 -171 509 -535 650 -644 337 -261 675 -429 995 -495 173 -35
279 -44 460 -38 226 8 374 35 615 112 145 47 288 83 398 101 123 20 338 19
487 -1 152 -21 310 -26 400 -14 104 14 276 71 400 132 132 65 235 127 455 274
333 223 566 347 812 432 237 81 386 105 863 136 524 34 668 54 907 125 823
244 1921 853 2693 1496 168 140 537 509 647 647 258 324 415 635 479 947 30
149 30 365 0 509 -53 244 -165 509 -304 716 -164 244 -409 494 -677 692 -298
219 -689 427 -1080 573 -63 24 -119 48 -125 53 -10 9 556 3 640 -8 22 -2 90
-9 150 -15 228 -22 518 -67 970 -150 432 -80 483 -89 610 -105 520 -67 740 48
1210 635 72 91 202 253 287 361 295 372 652 769 903 1005 399 374 767 874
1149 1559 240 429 488 947 889 1855 260 588 427 934 507 1050 9 14 47 82 83
151 215 413 376 927 448 1428 l23 156 49 35 c208 149 347 438 347 722 0 234
-186 483 -535 715 -447 297 -1078 500 -1785 573 -382 39 -1078 32 -1420 -15
-19 -2 -55 -7 -80 -10 -618 -75 -1214 -215 -1930 -454 -952 -318 -1929 -739
-3045 -1314 -895 -461 -1799 -974 -3210 -1822 -1192 -716 -1793 -1062 -2355
-1355 -281 -146 -406 -216 -645 -357 -970 -577 -2051 -1402 -3043 -2325 -109
-101 -194 -173 -196 -166 -2 7 -16 58 -30 113 -68 251 -175 416 -329 509 -32
19 -81 40 -108 47 -50 13 -51 14 -106 114 -105 187 -283 454 -431 648 -34 45
-43 64 -39 85 3 15 15 74 27 132 44 213 37 384 -21 550 -16 47 -32 92 -35 100
-7 21 139 212 216 283 199 185 504 310 870 357 47 6 99 12 115 15 17 2 143 13
280 25 416 34 617 66 811 129 395 128 732 391 947 739 30 49 96 177 145 285
176 385 272 490 487 534 223 45 438 -66 496 -257 16 -55 25 -70 40 -70 32 0
44 42 32 109 -23 124 -93 257 -183 350 -108 112 -211 160 -356 168 -108 7
-197 -15 -304 -74 -79 -43 -215 -178 -281 -278 -26 -39 -88 -133 -139 -210
-253 -383 -451 -579 -714 -712 -176 -89 -436 -161 -671 -187 -95 -10 -250 -25
-320 -31 -134 -11 -200 -16 -235 -20 -19 -2 -80 -9 -135 -15 -130 -14 -288
-44 -399 -75 -424 -116 -808 -403 -970 -723 l-27 -53 -38 30 c-97 77 -172 180
-314 432 -57 102 -113 199 -123 215 -130 204 -329 400 -489 481 -130 67 -298
84 -425 44 -73 -23 -171 -78 -214 -121 l-29 -28 -54 44 c-171 140 -384 166
-590 73 -174 -77 -360 -251 -499 -464 -28 -44 -93 -154 -144 -245 -157 -280
-242 -387 -376 -477 l-60 -41 -29 66 c-101 231 -343 474 -625 625 -284 153
-511 201 -1200 257 -446 36 -709 99 -952 227 -121 64 -236 153 -353 274 -137
141 -192 215 -420 564 -69 104 -123 175 -180 231 -264 261 -615 255 -838 -14
-103 -124 -189 -366 -145 -410 28 -28 46 -13 68 55 37 115 94 179 203 228 131
60 306 53 440 -18 70 -37 161 -131 217 -226 23 -38 77 -149 121 -246 97 -217
166 -336 270 -465 219 -273 541 -489 869 -583 171 -50 418 -89 695 -111 39 -3
129 -10 200 -16 536 -43 834 -139 1105 -355 64 -51 99 -91 248 -282 l71 -92
-15 -43 c-56 -160 -57 -379 -2 -613 l21 -91 -93 -124 c-126 -170 -283 -409
-370 -562 -64 -113 -75 -127 -103 -132 -75 -14 -160 -66 -238 -146 -66 -66
-86 -96 -133 -192 -33 -68 -67 -158 -85 -227 -17 -62 -32 -115 -33 -116 -2 -2
-68 58 -148 133 -1167 1090 -2429 2024 -3535 2619 -71 39 -202 107 -289 153
-266 137 -767 417 -1086 605 -290 171 -585 346 -725 430 -285 171 -983 588
-1105 660 -175 104 -568 334 -630 370 -30 17 -176 102 -325 187 -719 414
-1257 703 -1975 1061 -951 475 -1790 831 -2610 1109 -866 293 -1593 449 -2390
513 -127 10 -738 13 -865 4z m696 -348 c159 -41 290 -136 348 -253 91 -182 29
-304 -214 -422 -377 -184 -617 -230 -831 -160 -106 34 -197 130 -229 241 -32
108 -15 284 35 383 11 21 20 42 20 45 0 3 -49 -37 -108 -88 -257 -223 -453
-314 -653 -305 -73 3 -96 9 -163 41 -86 41 -182 125 -223 195 -14 24 -24 44
-22 46 2 2 72 27 154 56 295 101 631 176 950 210 55 6 116 13 135 15 19 3 105
8 190 11 85 4 157 9 160 12 3 2 88 2 190 -1 136 -5 205 -12 261 -26z m36722 9
c411 -35 798 -110 1117 -219 144 -48 200 -71 200 -81 0 -12 -49 -82 -83 -119
-48 -51 -143 -109 -215 -131 -209 -65 -467 31 -749 278 -132 116 -127 113 -98
51 101 -218 58 -463 -102 -576 -108 -76 -305 -99 -485 -55 -180 44 -522 194
-604 266 -185 160 -49 467 249 562 45 14 109 29 142 34 73 10 460 4 628 -10z
m-1989 -186 c-32 -20 -159 -92 -282 -160 -346 -194 -499 -290 -676 -425 -107
-81 -209 -173 -181 -163 11 3 70 24 130 46 357 128 745 175 1030 123 187 -33
387 -119 511 -219 52 -42 94 -112 94 -158 0 -128 -106 -170 -645 -253 -323
-50 -540 -107 -720 -190 -41 -19 -75 -36 -75 -38 0 -1 125 -2 278 0 355 3 526
-16 838 -92 346 -85 696 -236 996 -431 84 -55 138 -93 275 -199 9 -7 -9 -10
-59 -11 -58 0 -85 -6 -130 -28 -79 -38 -160 -122 -205 -213 -34 -69 -38 -85
-41 -172 -5 -122 14 -205 73 -325 62 -127 144 -231 353 -449 183 -192 284
-318 331 -417 35 -73 37 -170 4 -216 -48 -67 -182 -110 -382 -121 -226 -12
-453 32 -691 134 -9 5 -7 -5 8 -28 46 -68 122 -236 146 -321 121 -424 -2 -842
-350 -1192 -139 -141 -317 -275 -539 -406 -49 -29 -91 -55 -93 -56 -2 -1 -5
-28 -8 -61 -9 -126 -50 -239 -122 -334 -163 -220 -371 -333 -694 -379 -80 -12
-407 -14 -562 -4 l-99 7 7 -39 c9 -49 55 -150 96 -209 17 -25 78 -100 135
-165 57 -66 122 -150 144 -187 93 -158 107 -320 37 -408 l-22 -28 -142 45
c-78 25 -142 44 -142 43 0 -1 18 -40 39 -86 22 -46 49 -118 61 -159 24 -85 36
-252 26 -352 l-7 -64 -181 4 c-99 2 -178 0 -175 -4 3 -5 30 -48 60 -96 97
-155 168 -343 204 -543 16 -89 24 -387 11 -401 -9 -8 -161 16 -488 77 -873
163 -1185 201 -1710 205 -190 1 -345 3 -345 4 0 1 -15 4 -34 7 -182 25 -389
226 -432 419 -34 150 75 361 242 466 103 66 274 118 387 118 68 0 219 -40 337
-89 55 -22 101 -39 103 -37 7 8 -114 129 -176 174 -185 137 -384 195 -857 252
-135 16 -295 43 -295 50 0 11 169 60 265 77 133 24 472 23 685 -2 61 -7 301
-33 375 -40 211 -21 521 -30 602 -18 30 5 28 7 -50 46 -157 78 -277 231 -285
362 -5 77 15 121 86 187 101 95 216 129 427 129 77 0 151 -3 165 -6 49 -11
321 -8 333 4 8 8 7 11 -4 11 -29 0 -96 69 -120 122 -19 43 -24 69 -23 138 2
158 72 269 217 340 108 53 192 70 362 75 178 4 263 -6 400 -45 61 -17 144 -34
187 -37 66 -5 82 -3 122 17 50 24 52 40 5 40 -46 0 -133 46 -174 92 -70 77
-106 190 -85 268 37 139 360 269 560 225 19 -4 33 -5 30 -2 -3 3 -58 41 -123
84 -295 198 -355 296 -256 416 68 83 197 118 356 97 106 -14 383 -7 533 13
l85 12 -360 187 c-198 102 -393 202 -432 223 -40 20 -75 40 -78 45 -3 5 94 41
215 82 l221 73 -23 19 c-38 30 -167 91 -263 124 -141 48 -350 88 -493 94 -29
1 -49 5 -45 9 9 8 384 129 556 178 133 39 447 115 545 132 39 7 71 13 70 15
-2 1 -48 7 -103 13 -351 40 -618 90 -919 172 -205 56 -301 98 -376 166 -139
125 -118 264 63 424 194 172 413 283 667 337 l85 18 -105 22 c-58 12 -301 60
-540 107 -239 47 -477 100 -529 117 -153 51 -242 122 -294 235 -18 39 -22 66
-22 148 0 92 3 105 33 169 70 148 246 280 457 341 68 19 275 63 314 65 21 2
-57 31 -119 44 -90 20 -229 24 -440 13 -169 -10 -251 -1 -345 34 -63 24 -66
31 -31 106 74 157 265 333 481 441 84 42 199 81 244 83 26 1 26 1 -4 9 -16 5
-68 16 -116 24 -198 36 -384 109 -468 183 l-44 39 133 52 c419 167 1025 376
1382 477 221 62 587 153 662 164 6 0 -17 -15 -50 -35z m-33229 -34 c369 -89
792 -220 1252 -386 266 -96 614 -231 626 -243 14 -13 -65 -69 -165 -116 -100
-47 -230 -85 -372 -109 -90 -16 -120 -26 -74 -26 43 0 178 -49 270 -97 214
-113 403 -300 464 -460 21 -53 22 -51 -81 -85 -75 -24 -125 -26 -500 -18 -173
4 -258 -7 -344 -42 -35 -14 -34 -14 106 -41 162 -31 270 -65 363 -113 379
-198 428 -613 92 -783 -95 -48 -191 -71 -751 -181 l-524 -103 91 -19 c258 -52
508 -185 694 -368 85 -84 98 -102 113 -152 34 -119 -20 -220 -165 -305 -58
-35 -201 -80 -414 -133 -289 -71 -488 -105 -851 -146 l-60 -7 115 -22 c161
-32 306 -68 494 -121 176 -49 557 -172 568 -183 5 -4 -9 -8 -30 -9 -167 -9
-367 -47 -501 -94 -88 -31 -281 -125 -281 -137 0 -3 100 -40 222 -82 l221 -76
-169 -88 c-93 -48 -218 -114 -279 -145 -60 -32 -183 -95 -272 -141 -89 -46
-159 -85 -154 -87 4 -1 68 -9 142 -17 91 -9 194 -12 319 -8 345 10 375 7 463
-54 45 -31 87 -98 87 -138 0 -83 -86 -174 -292 -311 -71 -47 -128 -87 -128
-91 0 -3 12 -2 28 2 47 12 171 6 241 -11 144 -36 277 -118 308 -191 62 -149
-96 -382 -260 -383 -47 0 -41 -15 17 -41 62 -28 127 -23 307 23 162 41 166 42
344 42 195 1 288 -14 394 -60 158 -70 243 -195 243 -359 0 -113 -42 -200 -116
-240 -20 -11 -36 -22 -36 -26 0 -12 167 -17 285 -8 254 20 368 14 486 -26 115
-39 192 -104 232 -194 62 -139 -82 -363 -297 -461 l-59 -27 34 -6 c39 -7 427
-1 509 8 625 69 624 69 855 68 198 0 244 -3 330 -22 108 -23 222 -58 229 -70
5 -8 -158 -34 -444 -72 -432 -57 -624 -135 -819 -333 -36 -36 -63 -67 -60 -70
2 -2 34 8 71 24 37 16 111 43 165 61 173 57 340 43 523 -43 68 -33 100 -56
160 -117 156 -159 191 -324 106 -496 -76 -153 -267 -301 -399 -308 -20 -1 -37
-4 -37 -7 0 -3 -152 -5 -337 -5 -193 -1 -394 -6 -468 -13 -347 -34 -695 -86
-1180 -176 -159 -30 -335 -62 -390 -70 -55 -9 -112 -18 -126 -21 -23 -3 -28 0
-33 27 -11 54 -6 240 9 343 32 225 112 433 238 618 l39 59 -181 -4 c-156 -4
-181 -2 -186 11 -11 29 -14 205 -4 276 13 95 54 226 95 304 18 36 33 66 31 67
-1 1 -63 -18 -137 -42 -74 -24 -140 -44 -147 -44 -6 0 -20 15 -30 33 -63 106
-43 258 52 412 24 39 87 120 140 180 144 163 206 263 225 364 l8 43 -117 -7
c-169 -10 -449 -7 -544 5 -454 60 -784 342 -814 694 l-6 76 -86 52 c-645 387
-944 794 -942 1283 0 234 67 464 183 633 16 23 28 42 26 42 -2 0 -43 -16 -91
-35 -252 -98 -544 -129 -787 -81 -132 26 -189 60 -222 132 -28 65 -15 128 50
239 58 98 116 168 310 373 101 107 209 228 240 271 109 146 168 289 179 431
14 184 -93 373 -254 448 -45 20 -74 26 -126 27 l-69 0 34 28 c63 55 243 179
350 243 411 244 840 388 1343 449 72 9 206 13 392 12 l282 -2 -45 23 c-162 82
-379 145 -664 192 -462 75 -565 97 -642 136 -183 93 -92 277 207 415 269 124
596 149 971 74 126 -25 332 -86 443 -130 36 -13 66 -24 67 -22 5 5 -190 165
-271 224 -147 106 -264 176 -742 447 -95 53 -173 100 -173 102 0 7 31 1 265
-56z m-4219 -484 c-9 -37 13 -184 39 -260 47 -136 141 -244 273 -313 42 -23
145 -65 227 -93 83 -29 186 -71 229 -93 183 -94 295 -265 246 -374 -41 -92
-234 -226 -370 -256 l-55 -13 90 -37 c166 -70 261 -90 425 -91 80 0 200 3 267
8 l123 9 72 -36 c40 -20 111 -68 158 -107 204 -169 245 -200 300 -229 32 -17
81 -34 111 -38 l53 -8 -100 -39 c-282 -110 -644 -329 -731 -444 -18 -24 -38
-62 -44 -85 -31 -118 51 -271 181 -337 79 -40 133 -52 278 -58 l143 -7 -52
-40 c-133 -101 -216 -266 -226 -450 -14 -259 119 -450 391 -561 176 -72 347
-85 508 -38 15 4 13 -5 -11 -64 -56 -135 -66 -193 -65 -367 1 -145 5 -180 42
-365 61 -309 74 -504 45 -685 l-6 -40 36 32 c93 82 256 67 434 -38 31 -19 122
-98 202 -177 79 -78 174 -162 210 -186 71 -48 171 -86 223 -86 l32 0 -31 -32
c-102 -108 -109 -297 -16 -456 129 -219 418 -293 848 -218 44 7 82 12 83 11 2
-2 -12 -39 -31 -82 -80 -178 -117 -306 -122 -428 -7 -159 37 -279 139 -380 71
-71 138 -105 219 -113 l58 -5 -30 -18 c-44 -26 -107 -111 -127 -171 -52 -149
0 -304 129 -391 51 -35 150 -71 161 -60 14 14 2 -25 -73 -243 -43 -126 -84
-229 -90 -229 -20 0 -130 105 -227 218 -53 61 -187 227 -298 367 -424 538
-563 696 -991 1130 -454 459 -628 674 -909 1120 -335 530 -596 1048 -1094
2170 -328 739 -441 977 -556 1165 -59 97 -171 321 -225 452 -157 384 -275 869
-306 1265 l-7 87 -83 40 c-178 87 -293 274 -297 485 -2 83 31 144 141 259 50
52 66 59 57 23z m41572 -145 c31 -45 37 -64 40 -120 11 -204 -115 -416 -300
-505 -68 -33 -78 -41 -79 -64 0 -15 -2 -34 -3 -42 -2 -8 -6 -51 -10 -95 -8
-99 -10 -112 -46 -315 -88 -485 -254 -946 -483 -1335 -99 -167 -278 -538 -462
-955 -201 -455 -266 -599 -327 -735 -609 -1337 -1125 -2155 -1691 -2679 -105
-97 -402 -409 -549 -576 -119 -135 -299 -356 -508 -620 -106 -135 -227 -285
-269 -335 -83 -98 -237 -255 -250 -255 -9 0 -147 389 -158 443 -5 25 -3 27 24
27 46 0 146 55 193 106 23 25 53 70 66 99 60 130 12 307 -108 403 l-37 29 56
6 c105 11 204 75 272 178 65 97 85 177 78 318 -5 131 -32 228 -111 410 -25 55
-43 101 -41 101 1 0 38 -7 81 -15 406 -76 698 -9 834 190 106 155 111 370 11
475 l-36 38 55 6 c118 14 202 69 410 271 98 94 180 164 220 188 145 85 291
100 386 41 l49 -30 1 225 c0 204 3 239 27 361 94 468 96 601 13 823 -19 50
-34 92 -33 93 1 1 27 -4 57 -12 80 -21 229 -18 330 6 123 30 270 104 351 179
124 113 172 221 172 386 1 205 -78 371 -235 495 l-47 38 142 5 c218 7 326 51
407 165 92 128 83 252 -28 359 -114 109 -425 291 -665 389 -110 44 -126 53
-96 54 85 0 186 60 374 220 206 175 257 197 419 184 61 -5 176 -9 256 -8 165
0 238 15 420 86 l105 41 -60 14 c-166 38 -361 186 -381 288 -21 112 111 278
285 357 35 16 123 50 195 75 253 87 358 154 444 282 53 80 92 204 99 315 l6
90 50 -54 c27 -30 65 -79 85 -109z m-6928 -373 c37 -51 54 -110 45 -162 -3
-22 -29 -83 -58 -136 -47 -87 -52 -101 -52 -160 0 -53 5 -74 27 -111 32 -55
74 -93 123 -110 19 -7 35 -15 35 -19 0 -3 -21 -14 -47 -24 -93 -38 -170 -142
-204 -275 -69 -267 60 -502 376 -684 66 -38 271 -133 349 -161 18 -6 18 -8 -4
-31 -36 -38 -97 -63 -221 -91 -219 -49 -282 -80 -295 -149 -14 -79 25 -135
189 -267 247 -198 498 -337 807 -449 102 -37 104 -38 59 -38 -69 -1 -191 -36
-269 -77 -63 -33 -109 -69 -99 -78 2 -1 130 -67 284 -146 154 -78 289 -147
299 -152 15 -8 -41 -33 -290 -124 -409 -151 -393 -142 -269 -145 55 -1 111 -3
125 -4 14 -1 70 -6 125 -9 320 -22 556 -93 672 -202 40 -38 44 -44 23 -39
-184 45 -374 -35 -450 -190 -32 -64 -39 -179 -16 -257 20 -69 79 -154 139
-198 46 -34 46 -35 22 -42 -55 -14 -100 -55 -179 -162 -46 -61 -103 -130 -128
-153 -107 -97 -244 -138 -598 -178 -80 -9 -178 -25 -219 -36 -281 -75 -491
-321 -431 -503 6 -21 10 -39 7 -42 -2 -3 -60 5 -128 17 -296 52 -540 15 -638
-97 -104 -118 -115 -338 -26 -501 l23 -43 -36 16 c-172 74 -358 106 -602 106
-222 -1 -372 -24 -586 -92 -120 -38 -189 -49 -364 -56 -201 -8 -353 -28 -446
-59 -83 -27 -202 -91 -255 -134 l-31 -26 56 3 c65 4 147 -17 231 -61 74 -39
236 -198 284 -279 87 -150 112 -261 91 -405 -8 -54 -15 -145 -15 -203 0 -98 2
-109 32 -165 17 -33 51 -78 75 -101 101 -96 158 -116 321 -115 166 2 209 -22
239 -132 17 -64 -1 -132 -57 -215 -81 -123 -91 -130 -185 -147 -126 -22 -250
-50 -447 -100 -333 -85 -662 -154 -878 -185 -44 -6 -91 -13 -104 -15 -21 -4
-162 -17 -321 -30 -196 -16 -355 -26 -815 -50 -138 -7 -311 -14 -500 -20 -88
-3 -205 -7 -260 -10 -55 -2 -170 -7 -255 -10 -85 -3 -203 -8 -262 -11 -75 -4
-108 -2 -108 5 0 6 9 51 19 99 38 169 54 321 54 502 0 156 -3 186 -27 274 -49
189 -101 272 -276 445 -112 111 -140 152 -165 248 -46 177 30 385 178 489 l27
19 -47 3 c-121 7 -241 58 -336 143 -217 194 -240 494 -55 736 44 57 128 125
190 153 37 16 39 19 21 28 -10 6 -56 20 -101 32 -113 28 -186 65 -227 113 -38
44 -65 109 -47 115 33 11 124 88 150 128 72 107 45 283 -53 352 -56 39 -124
130 -146 195 -21 63 -17 115 18 227 21 64 27 106 28 170 0 79 -3 90 -39 162
-43 88 -115 167 -182 201 l-44 22 208 109 c658 346 1048 569 2372 1361 425
254 643 384 1105 658 108 64 645 372 945 542 104 59 437 242 540 298 47 25
180 96 295 157 240 129 882 454 1090 552 483 229 527 248 547 237 10 -6 32
-28 48 -51z m-27748 33 c138 -59 554 -258 888 -425 750 -375 1329 -691 2380
-1301 194 -112 875 -518 1815 -1080 613 -367 1241 -723 1630 -925 321 -167
317 -164 299 -175 -137 -82 -235 -236 -236 -370 0 -40 11 -101 32 -175 54
-189 32 -270 -108 -401 -87 -81 -115 -138 -114 -236 0 -97 53 -183 150 -240
46 -27 49 -37 28 -86 -32 -78 -110 -126 -278 -173 -54 -15 -98 -29 -98 -33 0
-3 29 -21 65 -39 72 -38 165 -130 208 -206 98 -175 102 -361 10 -524 -88 -159
-283 -280 -455 -284 l-48 -1 38 -27 c121 -90 183 -216 183 -375 1 -152 -35
-221 -192 -373 -148 -142 -217 -254 -260 -425 -25 -95 -35 -377 -18 -507 11
-90 57 -342 66 -366 5 -15 -5 -16 -113 -10 -133 6 -289 13 -504 21 -80 3 -192
7 -250 10 -58 3 -161 7 -230 10 -245 10 -376 17 -610 30 -47 3 -130 7 -185 10
-132 7 -274 17 -485 35 -277 24 -660 96 -1110 208 -151 38 -329 79 -395 92
-66 12 -130 26 -142 31 -26 10 -107 110 -142 177 -45 83 -39 191 13 251 37 41
76 51 203 50 97 0 128 3 173 20 115 44 212 147 244 262 20 70 20 116 0 231
-32 182 -11 316 71 453 138 229 324 357 535 368 l45 2 -81 52 c-90 58 -172 93
-266 116 -95 24 -116 26 -338 37 -220 12 -296 24 -440 70 -269 87 -635 108
-899 54 -86 -18 -223 -60 -263 -80 -16 -8 -28 -13 -28 -11 0 3 11 24 24 48 57
101 72 256 37 369 -39 123 -104 182 -244 220 -127 35 -291 30 -560 -16 -36 -7
-37 -6 -28 17 63 166 -62 368 -295 479 -99 48 -143 58 -389 90 -276 37 -335
50 -440 100 -104 50 -147 88 -228 203 -83 116 -143 173 -191 183 l-36 6 53 38
c58 42 94 88 128 165 18 39 23 70 23 140 1 79 -2 97 -27 147 -36 73 -119 149
-195 179 -61 24 -177 31 -242 15 l-35 -8 40 42 c50 52 190 121 300 149 150 38
314 57 555 67 91 4 166 8 168 9 1 1 -149 58 -333 126 -293 108 -333 125 -318
137 10 7 108 58 218 114 110 55 238 121 284 146 l84 45 -29 24 c-75 61 -245
122 -344 123 -42 0 -35 4 97 54 310 118 596 286 834 490 95 82 119 118 119
181 0 89 -48 122 -239 165 -154 35 -226 61 -270 98 l-34 28 94 39 c378 155
579 317 649 524 72 216 -19 480 -196 567 l-55 27 37 13 c48 16 111 78 136 132
35 79 29 128 -35 255 -63 123 -71 173 -41 245 14 35 70 102 85 102 4 0 27 -8
51 -19z m13507 -2860 c72 -37 130 -116 220 -296 l84 -168 85 169 c74 147 94
178 151 235 122 122 219 117 392 -21 125 -98 209 -211 359 -480 51 -91 122
-210 159 -265 78 -117 216 -261 316 -327 39 -25 87 -63 107 -84 101 -106 132
-279 88 -494 -31 -152 -25 -145 -90 -103 -149 96 -317 153 -451 153 -92 0
-192 -29 -401 -116 -394 -165 -569 -207 -808 -198 -201 8 -335 44 -670 179
-296 120 -363 139 -458 132 -111 -8 -225 -51 -345 -131 -29 -19 -56 -31 -60
-27 -4 4 -17 53 -28 107 -16 77 -20 124 -16 209 7 185 48 259 202 368 204 145
289 250 495 618 105 187 148 252 225 342 84 100 205 189 295 218 36 12 104 3
149 -20z m5899 -1836 c-14 -88 -3 -222 27 -311 47 -139 123 -230 239 -285 55
-27 62 -28 71 -13 78 128 228 238 383 280 62 16 234 20 273 5 24 -8 24 -8 2
-15 -12 -4 -39 -26 -61 -50 -91 -99 -95 -270 -8 -360 18 -19 63 -46 111 -65
135 -55 184 -124 172 -242 -10 -88 -41 -149 -146 -289 -52 -69 -104 -147 -117
-175 -94 -201 -26 -470 153 -607 58 -43 60 -47 38 -52 -39 -10 -96 -66 -117
-116 -43 -99 -31 -255 29 -360 14 -25 103 -121 198 -215 254 -251 297 -329
297 -545 1 -185 -60 -399 -167 -594 l-50 -91 -260 -1 c-303 -1 -424 7 -630 42
-479 82 -449 78 -660 78 -219 0 -276 -9 -455 -73 l-85 -30 45 40 c88 79 256
200 333 240 162 84 313 118 532 120 l130 1 -235 78 c-263 88 -413 128 -528
138 l-77 7 70 41 c196 116 364 174 620 217 22 3 -159 33 -275 44 -41 5 -169 8
-285 7 -191 -1 -219 -3 -306 -27 -116 -30 -208 -72 -396 -178 -159 -90 -253
-127 -346 -135 -97 -9 -127 3 -156 60 -43 87 -29 217 32 298 42 54 86 84 156
105 58 17 154 13 192 -8 42 -22 30 2 -27 58 -177 172 -398 203 -774 108 -74
-19 -146 -38 -159 -41 -20 -6 -14 -11 48 -40 60 -28 189 -129 178 -140 -2 -2
-28 5 -59 16 -60 21 -187 44 -196 35 -13 -13 150 -384 190 -433 25 -30 -7 -21
-101 29 -216 113 -404 308 -500 521 -16 34 -30 57 -33 52 -3 -5 -9 -42 -13
-82 -12 -118 -17 -96 -39 158 -9 96 -19 251 -22 343 l-7 169 234 231 c331 327
1028 964 994 907 -71 -117 -216 -300 -313 -392 -65 -63 -68 -68 -43 -68 37 0
126 27 183 56 26 13 113 74 194 135 81 61 170 122 198 135 49 24 46 20 -79
-103 -150 -148 -315 -292 -642 -557 -128 -104 -233 -190 -233 -192 0 -5 124
49 325 141 259 118 626 300 864 429 118 63 216 114 218 113 5 -6 -292 -296
-342 -335 -27 -21 -70 -51 -95 -65 -25 -15 -38 -27 -29 -27 30 0 245 41 448
86 111 25 207 44 212 42 5 -2 -108 -82 -251 -178 -143 -96 -260 -178 -260
-181 0 -4 38 -7 85 -8 46 -1 92 -4 102 -5 10 -2 92 -7 183 -11 90 -4 171 -9
180 -10 8 -2 52 -4 98 -4 45 -1 82 -5 82 -9 0 -5 -64 -28 -142 -52 -269 -81
-498 -169 -498 -190 0 -4 15 -10 33 -14 232 -44 497 -101 497 -106 0 -10 -105
-56 -170 -74 -30 -8 -127 -27 -215 -41 -154 -25 -287 -62 -326 -89 -16 -11 -9
-16 69 -49 48 -19 159 -67 247 -105 148 -64 303 -122 328 -122 5 0 -12 19 -38
42 -49 43 -125 133 -125 148 0 5 48 -12 108 -36 297 -125 687 -195 992 -179
69 4 132 8 140 10 8 1 45 6 82 10 37 3 70 10 73 14 2 5 -37 11 -88 14 -194 13
-438 82 -628 178 -86 43 -101 53 -84 60 11 5 144 24 295 44 151 20 320 42 375
50 55 8 140 20 190 26 l90 13 -135 27 c-269 53 -612 155 -690 204 -46 29 -60
52 -60 95 0 46 26 87 68 109 77 39 404 102 639 123 164 14 159 16 -147 53
-335 41 -536 77 -631 113 -36 14 -69 59 -69 93 0 55 51 93 190 142 413 147
519 186 650 239 161 65 150 67 -72 17 -143 -32 -297 -74 -568 -156 -154 -47
-198 -56 -263 -56 -42 0 -82 4 -87 9 -14 14 160 182 288 277 107 80 274 186
484 307 70 41 126 75 125 76 -1 1 -45 -9 -97 -22 -323 -83 -555 -72 -928 40
-101 30 -209 60 -240 66 -105 19 -207 -8 -326 -84 -32 -21 -60 -36 -61 -34 -2
2 6 39 18 82 l22 78 185 147 c308 246 957 728 966 718 1 -1 -2 -29 -8 -62z
m-11029 -52 c206 -147 666 -495 846 -640 158 -127 159 -129 177 -188 10 -33
17 -65 16 -71 -2 -7 -28 3 -67 27 -159 96 -257 106 -456 44 -466 -145 -681
-160 -1029 -71 -53 13 -96 22 -96 20 0 -1 30 -20 68 -41 342 -190 624 -387
777 -542 73 -75 68 -85 -42 -83 -64 1 -116 13 -298 67 -331 100 -718 196 -731
182 -6 -6 199 -85 571 -218 181 -65 341 -127 355 -137 65 -49 55 -132 -20
-169 -72 -35 -254 -70 -565 -108 -388 -47 -392 -48 -220 -63 170 -15 337 -42
509 -83 107 -26 135 -37 163 -63 49 -44 55 -100 18 -144 -15 -18 -44 -41 -64
-51 -97 -50 -515 -166 -724 -202 -37 -6 -66 -13 -64 -15 2 -3 73 -13 158 -24
197 -26 596 -80 629 -85 14 -3 52 -7 85 -11 33 -4 66 -10 73 -14 17 -9 -180
-107 -299 -148 -124 -44 -306 -82 -421 -89 -55 -3 -94 -9 -86 -14 48 -26 397
-42 588 -26 241 19 530 93 739 188 35 16 66 28 68 26 8 -8 -87 -125 -127 -157
-24 -19 -39 -35 -33 -37 15 -5 173 53 338 124 83 36 185 80 228 98 43 18 80
35 83 38 10 10 -75 48 -149 67 -40 10 -124 26 -187 35 -185 28 -319 66 -373
107 -15 11 18 20 253 68 148 30 270 58 270 61 0 19 -231 106 -517 194 -68 21
-123 42 -123 47 0 4 35 9 78 9 42 1 88 3 102 4 14 2 97 6 185 10 88 4 167 9
175 11 8 1 55 3 103 3 52 1 86 5 82 10 -3 6 -120 87 -261 182 -140 94 -253
174 -250 176 2 3 87 -13 188 -36 166 -36 336 -69 443 -86 l40 -6 -55 36 c-110
74 -246 196 -364 330 l-61 69 70 -38 c335 -184 816 -425 1075 -539 69 -30 156
-69 194 -86 47 -22 64 -26 55 -15 -8 9 -95 82 -194 163 -203 164 -393 322
-475 395 -123 110 -320 299 -316 303 10 10 94 -43 233 -148 154 -116 223 -156
312 -183 107 -32 110 -24 23 62 -82 81 -156 171 -237 287 l-49 70 39 -32 c128
-101 597 -530 890 -815 l170 -165 -3 -134 c-1 -74 -4 -163 -7 -199 -2 -36 -7
-108 -11 -160 -3 -52 -11 -152 -19 -223 -12 -121 -15 -131 -50 -183 -49 -75
-183 -213 -264 -273 -66 -49 -196 -123 -238 -136 -21 -6 -21 -3 10 52 71 125
185 389 173 400 -7 8 -127 -15 -196 -36 -58 -18 -59 -18 -49 0 5 11 33 37 61
59 45 37 75 53 158 87 22 9 16 12 -59 32 -238 64 -301 75 -451 75 -131 0 -152
-2 -218 -26 -40 -14 -94 -40 -120 -57 -50 -32 -149 -127 -141 -135 3 -3 25 2
49 10 96 34 224 1 299 -76 81 -84 105 -235 53 -337 -20 -39 -25 -42 -76 -48
-124 -16 -221 18 -482 166 -265 151 -413 186 -742 176 -141 -4 -456 -39 -469
-51 -2 -1 43 -11 100 -20 181 -32 387 -111 545 -210 l54 -33 -79 -6 c-101 -7
-304 -60 -557 -145 l-201 -67 170 -7 c321 -12 491 -82 774 -318 50 -41 89 -76
87 -77 -1 -2 -36 10 -77 26 -160 61 -238 75 -434 76 -183 0 -211 -3 -515 -56
-294 -51 -399 -60 -735 -66 l-320 -6 -43 75 c-140 245 -208 541 -171 744 6 32
27 93 46 134 32 68 54 93 228 265 163 162 197 201 223 256 56 117 61 254 12
353 -24 51 -43 69 -95 95 l-37 18 34 21 c46 29 118 106 151 162 82 141 95 313
34 455 -12 27 -64 106 -116 175 -52 69 -106 150 -120 180 -33 72 -40 173 -16
236 20 54 58 84 154 123 41 16 87 43 104 58 74 70 93 204 43 308 -27 54 -87
114 -116 116 -8 0 -4 5 9 10 37 14 198 14 261 -1 139 -32 285 -126 364 -234
43 -59 50 -64 71 -56 144 55 245 177 290 350 18 69 24 210 12 273 -5 20 -5 37
-1 37 4 0 68 -44 143 -97z m4337 16 c38 -12 161 -58 274 -104 326 -131 450
-167 655 -185 282 -27 506 22 940 203 225 93 286 110 375 104 57 -4 101 -14
163 -40 94 -38 241 -129 300 -185 78 -75 364 -478 486 -685 58 -100 111 -202
111 -216 0 -15 -214 -149 -343 -214 -254 -129 -467 -187 -718 -195 -185 -5
-317 8 -482 50 -256 64 -514 190 -667 326 l-44 39 -62 -53 c-157 -132 -397
-250 -634 -309 -218 -55 -487 -71 -664 -40 -232 41 -495 166 -714 340 l-83 66
50 97 c63 122 187 316 324 508 210 294 272 359 417 442 133 75 202 86 316 51z
m-1256 -1249 c28 -11 58 -20 66 -20 9 0 53 -28 97 -62 45 -34 73 -58 62 -54
-56 23 -166 55 -210 62 l-49 7 81 -88 82 -88 -71 -24 c-39 -13 -84 -31 -102
-39 -44 -22 -136 -86 -136 -94 0 -4 19 -12 43 -19 47 -14 137 -61 137 -71 0
-4 -11 -12 -24 -18 -55 -25 -198 -178 -208 -222 -4 -17 -2 -17 108 -19 l87 -1
-71 -74 c-38 -40 -86 -104 -107 -140 -38 -68 -79 -165 -72 -172 2 -2 23 6 48
18 52 26 166 31 217 9 29 -12 44 -31 24 -31 -16 0 -132 -112 -177 -170 -66
-85 -144 -240 -121 -240 2 0 23 7 47 15 55 20 159 35 159 23 0 -5 -22 -36 -48
-71 -57 -73 -112 -163 -143 -232 -23 -54 -79 -214 -79 -227 0 -4 34 8 76 27
42 19 78 35 80 35 3 0 -9 -26 -25 -57 -151 -300 -147 -734 10 -1045 27 -54
105 -178 112 -178 1 0 3 59 4 131 6 405 109 771 315 1123 17 29 20 40 10 43
-29 11 -72 56 -94 101 -18 37 -23 64 -23 127 0 71 4 88 36 156 20 42 69 125
109 184 128 192 134 218 60 300 -87 96 -115 184 -98 306 22 165 146 314 342
412 l69 35 69 -24 c81 -27 245 -64 287 -64 17 0 33 -4 36 -10 3 -5 -17 -69
-44 -142 -75 -201 -127 -366 -171 -543 -50 -204 -68 -314 -80 -497 -13 -205
-54 -472 -101 -666 -125 -511 -401 -962 -882 -1441 l-145 -144 -11 39 c-51
190 -87 420 -98 613 -3 64 -7 118 -9 120 -5 5 -65 -82 -117 -172 l-49 -82 7
65 c10 101 50 289 125 590 129 518 153 696 154 1140 1 173 -3 358 -7 410 l-8
94 21 -19 c11 -10 22 -16 24 -14 2 2 7 65 10 139 17 362 34 507 76 658 41 146
102 249 175 294 38 23 53 23 115 -2z m4819 6 c85 -44 170 -213 206 -410 36
-200 46 -391 26 -517 -31 -194 -40 -358 -36 -644 2 -159 8 -333 14 -385 35
-292 63 -439 155 -805 61 -245 116 -518 116 -575 0 -20 -7 -13 -33 35 -37 69
-112 181 -127 190 -6 4 -10 -21 -10 -67 -1 -87 -6 -141 -30 -313 -20 -139 -67
-365 -79 -378 -11 -11 -351 339 -455 468 -255 318 -447 677 -550 1032 -58 199
-108 486 -121 693 -22 345 -87 631 -240 1047 -35 97 -63 178 -61 180 2 2 57
12 122 23 65 10 159 31 207 45 l89 25 73 -41 c202 -115 307 -256 318 -429 7
-110 -23 -192 -98 -270 -24 -25 -46 -56 -50 -70 -10 -41 18 -100 119 -256 132
-202 157 -289 120 -413 -16 -54 -75 -131 -100 -131 -19 0 -18 -9 6 -47 200
-329 320 -768 315 -1157 l-1 -99 26 31 c36 44 113 192 144 280 94 263 90 583
-11 837 -19 50 -42 101 -50 114 -17 27 -23 28 75 -14 34 -15 65 -26 67 -23 11
10 -39 148 -91 253 -30 61 -81 146 -113 189 -33 44 -58 83 -56 86 6 10 96 -5
157 -26 27 -9 51 -14 53 -12 8 7 -67 154 -109 212 -43 60 -136 155 -186 189
-31 22 -19 31 59 48 61 13 147 0 189 -27 13 -8 26 -13 29 -11 8 8 -48 139 -84
197 -19 30 -65 85 -101 123 l-66 67 89 1 c50 1 96 1 103 0 38 -5 -20 81 -116
171 -39 36 -80 69 -91 73 -12 3 -21 10 -21 14 0 11 88 57 138 72 23 7 42 15
42 19 0 22 -151 107 -242 136 -32 10 -58 20 -58 23 1 3 52 42 115 85 63 44
113 81 111 84 -4 3 -127 -19 -186 -34 -45 -11 97 77 162 102 75 27 90 29 127
10z m-2432 -140 c235 -157 561 -269 866 -298 l127 -12 26 -34 c33 -42 138
-327 199 -536 105 -364 141 -666 101 -854 -19 -92 -95 -250 -186 -385 -80
-121 -246 -300 -365 -394 l-79 -63 -58 -222 c-81 -316 -90 -349 -95 -345 -2 2
-12 35 -23 73 -11 38 -22 76 -25 83 -4 10 -40 -37 -98 -124 l-92 -138 -11 79
c-7 43 -20 132 -29 197 -13 88 -20 115 -29 108 -7 -6 -39 -51 -71 -100 -33
-49 -61 -89 -62 -88 -3 4 -28 202 -39 315 -3 40 -10 74 -13 77 -4 2 -29 -62
-55 -143 -27 -81 -51 -150 -55 -154 -4 -4 -33 65 -66 153 -69 183 -60 188 -95
-46 -11 -77 -24 -148 -28 -158 -6 -15 -22 -1 -87 82 -44 55 -80 99 -81 98 -1
-1 -5 -36 -8 -77 -4 -41 -9 -91 -11 -110 -2 -19 -7 -69 -11 -110 -3 -41 -7
-76 -8 -77 0 0 -41 47 -91 105 l-89 106 -17 -113 c-9 -62 -19 -114 -21 -116
-4 -4 -100 356 -154 577 -16 64 -20 70 -73 110 -154 114 -344 329 -447 504
-113 192 -145 296 -145 474 -1 147 19 290 67 489 37 156 160 533 219 674 l37
87 52 1 c100 0 276 28 413 64 197 52 412 148 549 244 38 27 72 50 75 50 3 1
42 -23 86 -53z m-1405 -2264 c68 -94 68 -100 16 -178 -51 -75 -98 -102 -203
-118 -50 -7 -91 -13 -92 -12 -1 1 11 49 28 106 32 113 61 247 80 377 l12 82
50 -87 c27 -48 76 -124 109 -170z m2818 206 c0 -50 49 -294 83 -411 27 -96 30
-114 17 -107 -10 5 -46 12 -81 15 -35 4 -83 16 -106 27 -52 24 -107 85 -129
144 l-17 44 41 52 c50 66 144 215 162 257 15 36 30 26 30 -21z m-12965 -493
c608 -160 839 -214 1090 -254 117 -19 150 -24 235 -36 27 -4 113 -12 195 -20
28 -2 95 -7 150 -10 55 -3 129 -7 165 -10 36 -2 110 -7 165 -10 55 -3 134 -7
175 -10 41 -2 127 -7 190 -10 63 -3 144 -7 180 -10 36 -2 124 -7 195 -10 72
-3 159 -8 195 -10 36 -2 135 -7 220 -10 85 -4 175 -8 200 -10 25 -2 124 -6
220 -10 96 -3 202 -8 235 -10 277 -20 1101 -27 1325 -12 103 7 206 17 340 33
71 9 272 43 373 64 385 79 586 53 983 -126 292 -130 330 -147 436 -185 300
-108 565 -106 793 5 51 25 114 62 141 83 71 57 73 57 68 26 -22 -145 -24 -421
-4 -550 28 -177 97 -367 184 -507 54 -87 77 -106 126 -106 30 0 51 15 160 112
69 61 200 187 292 280 l168 169 62 -67 c97 -102 98 -106 47 -189 -23 -39 -55
-89 -71 -113 -76 -111 -93 -274 -43 -410 31 -85 41 -59 -95 -232 -217 -274
-414 -616 -499 -867 -38 -110 -67 -249 -76 -358 -3 -44 -13 -125 -21 -180 -9
-55 -19 -122 -23 -150 -9 -58 -13 -68 -100 -200 -282 -431 -816 -1171 -1016
-1410 -501 -599 -963 -924 -1475 -1037 -91 -20 -132 -23 -310 -23 -231 0 -315
12 -509 72 -202 62 -383 110 -481 128 -145 26 -407 31 -570 10 -224 -27 -306
-30 -401 -10 -168 34 -341 122 -659 335 -489 328 -863 499 -1246 569 -190 34
-260 41 -819 77 -147 9 -349 33 -432 50 -414 85 -1167 419 -1795 795 -534 320
-1010 685 -1340 1027 -534 555 -742 1056 -623 1499 68 254 189 485 370 703
143 172 417 410 630 545 388 248 897 466 1402 601 145 39 390 91 433 93 14 0
223 -51 465 -114z m23641 89 c836 -165 1676 -566 2153 -1028 369 -358 590
-807 576 -1172 -14 -357 -205 -725 -598 -1155 -556 -609 -1610 -1294 -2597
-1689 -393 -158 -607 -213 -910 -235 -47 -3 -105 -8 -130 -10 -25 -2 -92 -7
-150 -10 -58 -3 -130 -8 -160 -10 -30 -3 -93 -7 -140 -11 -562 -39 -969 -195
-1595 -609 -512 -339 -647 -384 -1010 -336 -186 25 -416 27 -565 5 -126 -19
-303 -62 -479 -118 -253 -80 -394 -101 -631 -93 -186 6 -299 27 -462 83 -425
147 -837 466 -1266 982 -255 306 -829 1110 -1085 1519 -78 124 -106 162 -121
160 -30 -3 -51 67 -161 526 -75 318 -241 649 -488 979 l-98 130 25 61 c51 129
56 247 14 372 -23 68 -40 95 -121 187 -53 60 -58 70 -46 85 22 30 143 153 150
153 4 0 76 -70 160 -156 169 -172 406 -389 443 -405 54 -25 123 47 205 216
103 210 141 403 136 680 -4 149 -18 296 -41 422 l-7 38 40 -50 c116 -147 294
-262 478 -311 55 -15 104 -19 225 -19 136 1 168 4 260 28 112 29 316 110 573
226 279 127 447 173 632 172 122 0 186 -8 415 -50 303 -57 429 -73 725 -92
166 -11 903 -7 1025 5 25 2 128 7 230 11 102 3 212 8 245 10 33 2 130 7 215
10 85 3 180 8 210 10 30 2 123 7 205 10 83 3 179 8 215 10 36 2 117 7 180 10
63 3 153 8 200 10 47 3 123 7 170 10 47 3 126 7 175 10 541 30 678 44 970 96
288 52 703 152 1370 332 50 14 95 25 101 26 6 0 69 -11 140 -25z m-13746 -565
c-39 -157 -82 -297 -126 -412 -19 -49 -33 -92 -31 -94 10 -9 264 292 354 420
23 32 44 54 47 49 4 -8 15 -105 31 -292 2 -30 5 -112 6 -182 1 -71 4 -128 8
-128 3 0 49 113 101 250 l95 249 36 -112 c47 -147 72 -206 118 -286 77 -131
183 -223 307 -266 34 -12 77 -34 94 -49 18 -15 50 -36 71 -46 45 -23 202 -70
234 -70 12 0 28 -7 35 -15 10 -12 45 -15 194 -15 112 0 186 4 192 10 6 6 46
19 90 30 114 27 188 57 239 96 25 18 80 47 122 64 191 74 310 229 408 532 l41
128 89 -233 c121 -319 114 -310 115 -142 1 77 3 160 6 185 18 202 26 277 30
288 2 7 44 -40 93 -105 89 -118 301 -367 307 -360 2 2 -22 75 -52 163 -55 157
-139 462 -130 471 3 3 89 -72 192 -166 145 -133 203 -193 257 -268 38 -54 90
-124 116 -156 81 -104 80 -90 12 -131 -85 -52 -156 -119 -181 -172 -24 -50
-30 -128 -11 -162 11 -21 10 -21 -21 -14 -18 4 -80 7 -138 7 -165 -1 -233 -28
-548 -217 -319 -191 -455 -244 -612 -236 -117 5 -198 43 -287 134 -36 37 -62
58 -59 48 31 -103 47 -244 32 -292 -11 -33 -41 -27 -91 19 -88 81 -166 226
-196 362 l-12 58 -27 -88 c-37 -124 -93 -227 -162 -295 -63 -62 -91 -76 -115
-57 -22 19 -12 124 21 223 14 42 26 78 26 81 0 2 -23 -21 -51 -50 -96 -101
-193 -145 -324 -145 -141 0 -314 70 -604 244 -296 178 -420 223 -586 213 -44
-2 -88 -8 -99 -12 -16 -7 -17 -5 -10 26 12 55 12 81 -3 126 -24 71 -91 135
-226 217 l-27 17 54 67 c30 37 90 117 133 178 65 91 112 141 262 278 101 92
185 165 187 163 3 -3 -9 -60 -26 -128z m1524 -468 c3 13 13 64 21 113 8 49 16
91 18 92 1 2 23 -49 47 -112 25 -63 47 -114 50 -114 3 0 32 43 65 95 69 109
64 112 85 -63 8 -62 17 -111 21 -110 4 2 44 45 88 96 45 51 81 88 81 83 0 -6
-9 -49 -20 -96 -11 -47 -20 -90 -20 -95 0 -5 25 3 56 17 30 14 57 23 60 21 2
-3 -8 -39 -22 -81 -31 -94 -57 -118 -162 -151 -201 -63 -486 -58 -672 13 -78
30 -96 52 -131 159 -16 52 -28 97 -25 100 3 2 28 -12 57 -32 28 -21 53 -35 56
-32 3 3 -2 37 -11 77 -9 40 -14 74 -12 76 3 3 44 -27 93 -65 l88 -70 6 57 c7
58 18 195 19 221 0 8 36 -39 79 -104 69 -104 81 -116 85 -95z m-1807 -1098 c4
-32 8 -110 8 -173 0 -97 -3 -122 -21 -157 -12 -24 -20 -43 -19 -43 16 0 206
122 293 188 l33 25 -6 -54 c-9 -74 -42 -185 -71 -238 -13 -24 -23 -45 -22 -46
2 -1 104 55 228 126 124 71 228 129 231 129 20 0 25 -225 8 -349 -6 -45 -9
-85 -6 -87 3 -3 27 7 54 22 68 40 184 159 223 226 17 32 36 60 40 63 5 3 9
-66 9 -152 1 -86 4 -159 6 -162 7 -6 130 47 190 82 80 46 166 111 215 161 24
25 47 46 51 46 15 0 32 -142 27 -229 l-5 -91 41 33 c92 72 173 166 234 270 22
38 42 65 45 60 3 -4 20 -44 38 -88 l33 -79 28 59 c15 33 32 73 38 89 l10 30
35 -58 c19 -32 50 -79 69 -105 38 -52 190 -201 205 -201 5 0 7 37 4 83 -5 80
12 227 26 227 4 0 23 -16 42 -36 59 -63 189 -153 293 -205 55 -27 107 -49 113
-49 10 0 13 32 13 129 0 71 3 143 6 160 l7 32 31 -55 c45 -81 118 -160 198
-216 39 -28 76 -50 81 -50 6 0 7 19 3 48 -20 140 -18 392 3 392 4 0 108 -58
231 -128 124 -71 226 -128 228 -127 1 1 -11 28 -27 61 -32 64 -57 151 -65 227
l-5 47 57 -41 c74 -54 143 -98 213 -138 l57 -32 -20 40 c-14 30 -21 65 -23
133 -3 95 10 238 23 250 4 3 38 -13 76 -35 73 -44 147 -125 299 -327 174 -231
291 -474 336 -695 23 -115 28 -158 36 -310 15 -274 54 -443 131 -575 18 -30
44 -93 58 -140 37 -125 86 -322 86 -347 0 -32 -61 -74 -114 -80 -70 -8 -126
24 -238 139 l-98 99 0 -68 c0 -89 13 -133 61 -214 82 -137 55 -259 -56 -259
-42 0 -81 18 -112 52 -26 28 -73 125 -73 152 0 11 -3 17 -6 14 -6 -7 -8 -21
-24 -168 -7 -58 -14 -107 -17 -110 -8 -8 -175 171 -236 253 -30 40 -70 101
-89 135 -26 46 -37 59 -42 47 -3 -9 -6 -83 -6 -164 0 -103 -5 -163 -15 -199
-15 -51 -35 -76 -43 -54 -7 21 -160 246 -196 287 l-35 40 0 -154 c-1 -156 -9
-208 -41 -271 -77 -150 -209 -63 -364 240 -58 113 -95 174 -96 160 -6 -79 -32
-262 -41 -289 -7 -20 -24 -53 -38 -75 l-25 -39 -39 44 c-61 70 -131 181 -162
259 -38 94 -46 78 -48 -96 -2 -135 -2 -136 -30 -160 -51 -43 -95 -44 -158 -2
-34 24 -99 110 -99 133 0 14 139 183 251 304 43 47 77 86 76 87 -1 1 -76 -15
-166 -37 -91 -21 -166 -37 -168 -36 -1 2 72 83 162 181 91 98 165 179 165 181
0 13 -387 -112 -498 -161 l-54 -24 22 33 c55 82 163 348 147 363 -2 2 -81 -56
-176 -131 -94 -74 -175 -135 -179 -135 -5 0 -30 60 -56 133 -26 73 -51 139
-56 147 -10 17 -28 -21 -84 -187 l-42 -122 -95 73 c-53 41 -124 100 -158 131
-34 32 -64 56 -67 53 -7 -8 55 -176 97 -261 44 -88 44 -88 27 -82 -22 7 -291
45 -295 41 -5 -4 93 -89 169 -145 32 -24 93 -61 135 -83 l78 -39 -140 7 c-77
3 -142 6 -145 6 -20 1 -17 -7 19 -49 73 -82 136 -244 129 -330 -2 -30 -9 -39
-38 -54 -49 -25 -81 -29 -117 -14 -52 22 -64 58 -61 192 1 68 -2 126 -8 136
-9 15 -15 8 -37 -50 -31 -78 -105 -197 -164 -262 l-39 -44 -42 63 c-23 34 -49
87 -58 118 -16 54 -22 191 -9 212 3 5 3 10 -2 10 -18 0 -89 -112 -140 -219
-67 -140 -99 -189 -150 -224 -74 -51 -127 -30 -180 70 -49 93 -71 172 -72 263
l-1 45 -47 -54 c-41 -47 -102 -129 -134 -181 -8 -13 -11 -12 -24 4 -49 63 -82
235 -66 337 6 34 9 64 7 66 -1 2 -26 -34 -54 -79 -82 -133 -280 -364 -297
-346 -3 3 -1 55 6 114 12 116 8 228 -11 282 -7 18 -14 31 -16 29 -3 -2 -16
-44 -30 -93 -32 -112 -92 -240 -129 -276 -47 -47 -98 -31 -136 44 -23 46 -21
106 12 308 10 63 19 149 18 190 0 74 0 75 -17 50 -43 -62 -116 -142 -154 -168
-41 -28 -115 -58 -123 -50 -7 7 84 343 134 499 28 86 51 159 51 162 0 3 -13 9
-28 15 l-28 10 -2 233 c-2 363 20 490 122 704 86 180 187 326 395 574 58 69
113 136 121 149 13 19 140 99 162 101 4 1 10 -25 15 -56z m4593 -3383 c23
-140 44 -258 46 -262 2 -3 -2 -51 -10 -105 -8 -54 -17 -125 -20 -158 -6 -62
-26 -294 -26 -307 0 -5 -18 -8 -39 -8 -22 0 -70 -7 -108 -16 -121 -28 -173 -3
-194 93 l-12 54 -33 -90 c-31 -88 -89 -201 -102 -201 -26 1 -137 197 -168 295
l-18 58 -12 -95 c-7 -54 -24 -126 -41 -169 -28 -71 -90 -179 -104 -179 -4 0
-9 15 -13 33 -19 100 -97 238 -180 322 l-60 60 -7 -81 c-9 -99 -22 -150 -60
-228 -28 -60 -113 -176 -128 -176 -5 0 -11 22 -14 48 -13 115 -85 263 -169
352 l-42 45 -12 -77 c-27 -172 -99 -323 -216 -453 l-44 -49 -18 43 c-9 24 -34
69 -55 100 -44 65 -167 184 -184 178 -6 -2 -14 -17 -18 -34 -9 -47 -45 -115
-86 -162 l-36 -43 -19 23 c-54 69 -159 212 -195 265 l-41 61 161 37 c89 20
213 51 277 68 134 37 141 32 -113 74 l-168 27 33 20 c73 45 165 108 198 136
l35 30 -95 -24 c-97 -24 -309 -60 -315 -53 -2 2 9 41 26 86 16 46 32 108 36
139 l6 55 -49 -52 c-26 -28 -60 -60 -75 -70 l-26 -19 34 110 c33 111 63 263
63 329 l1 35 29 -35 c59 -70 110 -187 147 -337 l8 -33 94 137 95 137 16 -50
c20 -58 81 -182 117 -236 l26 -38 15 22 c9 12 35 73 58 135 23 63 50 126 59
140 l17 25 28 -33 c74 -88 128 -210 137 -311 3 -32 9 -55 13 -53 4 2 13 25 20
51 28 99 136 226 226 264 25 11 66 20 90 20 60 0 106 -43 179 -166 31 -52 60
-94 65 -94 9 0 18 20 109 225 58 132 86 184 94 174 53 -64 125 -206 168 -329
l33 -94 12 40 c7 21 29 91 48 154 20 63 45 130 56 148 55 89 178 52 210 -63
10 -37 11 -63 2 -118 -6 -39 -9 -73 -6 -76 8 -9 74 149 107 259 19 63 45 166
58 227 13 62 27 109 30 105 4 -4 26 -122 49 -262z m-5393 17 c23 -81 115 -279
153 -327 l20 -25 -7 45 c-4 25 -8 70 -8 100 1 94 56 162 133 164 76 2 82 -9
191 -364 7 -22 10 -17 31 45 44 131 158 355 182 355 13 0 44 -78 71 -181 14
-52 34 -114 45 -139 l19 -45 21 47 c72 164 262 231 402 143 49 -31 90 -86 161
-216 29 -55 56 -99 60 -99 3 0 22 57 43 127 20 70 49 150 62 178 26 50 61 95
75 95 5 0 47 -51 95 -114 49 -63 91 -113 96 -110 14 9 77 123 95 174 10 27 21
50 25 50 4 0 30 -34 58 -75 28 -41 68 -99 89 -129 l38 -55 21 86 c21 85 91
241 117 263 11 9 15 4 20 -27 18 -121 39 -216 65 -296 16 -50 28 -93 25 -95
-2 -2 -35 28 -74 66 -56 54 -71 65 -71 49 0 -34 31 -149 56 -204 20 -47 21
-53 6 -53 -36 0 -261 41 -327 59 -38 11 -71 18 -73 17 -4 -5 121 -96 196 -143
l62 -40 -167 -28 c-233 -39 -230 -38 -162 -58 72 -21 357 -92 432 -107 65 -13
68 -20 36 -83 -27 -53 -190 -266 -205 -266 -26 -2 -95 102 -117 175 -7 26 -19
50 -25 52 -6 2 -49 -34 -95 -80 -61 -61 -94 -104 -124 -162 l-40 -79 -62 74
c-105 127 -176 290 -197 449 l-7 55 -53 -58 c-79 -85 -164 -273 -164 -364 0
-34 -12 -28 -59 30 -84 103 -132 228 -135 353 0 41 -4 74 -8 74 -16 0 -82 -67
-122 -124 -57 -79 -85 -135 -111 -221 l-22 -70 -33 47 c-67 94 -117 247 -120
368 -1 32 -3 30 -24 -30 -13 -36 -37 -92 -54 -125 -29 -58 -102 -165 -112
-165 -12 0 -66 103 -100 194 l-38 99 -7 -44 c-17 -102 -59 -129 -168 -110 -39
6 -73 13 -75 15 -5 6 -10 49 -17 156 -9 156 -37 387 -73 608 -7 38 -5 70 6
117 9 36 18 65 21 65 3 0 16 -37 28 -83z m5442 -1656 c24 -112 -20 -471 -95
-791 -26 -112 -75 -285 -94 -335 -12 -32 -10 -36 -108 199 -6 14 -18 -10 -46
-98 -37 -116 -130 -316 -147 -316 -5 0 -9 8 -9 19 0 60 -108 353 -121 329 -3
-7 -10 -31 -14 -53 -9 -53 -59 -145 -99 -184 l-33 -32 -7 48 c-10 78 -44 166
-90 234 -23 35 -46 63 -51 62 -5 -1 -15 -30 -22 -65 -28 -141 -95 -292 -185
-418 l-53 -75 -7 145 c-7 154 -23 229 -73 338 l-27 57 -22 -65 c-12 -36 -34
-85 -49 -110 -32 -55 -113 -147 -121 -139 -4 3 -1 30 5 60 21 96 -6 240 -60
329 l-21 35 0 -45 c-2 -167 -64 -397 -148 -553 -48 -90 -151 -237 -165 -237
-5 0 -5 37 -1 83 11 124 8 193 -11 243 -9 25 -20 43 -23 39 -3 -3 -14 -37 -24
-77 -10 -39 -32 -103 -50 -142 -31 -69 -99 -179 -117 -190 -4 -3 -16 24 -25
61 -27 110 -105 232 -106 165 0 -9 -9 -37 -20 -61 l-21 -44 -50 82 c-28 45
-49 84 -47 86 20 20 234 27 318 10 35 -7 34 -7 -23 39 -75 58 -152 102 -240
136 -38 15 -65 30 -60 33 16 10 135 27 187 27 l50 0 -119 120 c-65 66 -116
122 -113 125 7 7 197 -23 277 -45 40 -12 76 -19 78 -16 7 7 -157 144 -244 203
-64 43 -83 62 -83 80 0 20 68 324 74 330 1 2 45 -70 96 -159 82 -141 95 -158
101 -137 5 13 20 101 34 194 27 175 34 209 41 203 9 -10 116 -304 147 -408 20
-63 38 -108 41 -100 3 8 23 118 45 244 23 126 43 231 45 234 7 6 67 -90 110
-176 47 -94 72 -160 100 -270 l22 -91 23 72 c51 159 205 527 221 527 13 0 138
-262 172 -359 17 -52 33 -90 34 -85 2 5 29 110 60 234 31 124 59 227 61 230
12 13 126 -155 187 -276 24 -47 47 -81 50 -76 32 51 99 290 112 396 6 52 8 57
20 42 23 -32 73 -184 92 -278 l18 -91 41 90 c47 103 86 219 103 313 7 36 16
68 19 72 4 4 29 -78 55 -183 28 -107 53 -185 57 -177 3 7 33 115 65 240 32
126 61 222 65 215 4 -6 12 -36 18 -66z m-5295 -76 c12 -78 55 -213 104 -323
l46 -107 16 80 c22 107 46 185 77 254 l26 56 18 -102 c18 -98 62 -249 95 -329
l16 -38 52 101 c50 96 144 241 170 262 9 8 26 -49 71 -229 32 -131 62 -237 66
-234 4 2 11 19 15 36 18 84 155 385 183 403 15 9 120 -231 196 -449 l52 -148
12 62 c26 130 101 310 179 427 30 45 37 51 43 36 6 -17 64 -340 76 -426 3 -21
9 -39 13 -42 3 -2 19 40 34 93 25 87 102 302 139 391 18 43 20 39 47 -134 31
-200 39 -247 44 -252 4 -4 24 28 131 215 25 45 48 82 50 82 2 0 47 -230 60
-311 4 -25 -3 -29 -113 -80 -166 -75 -280 -151 -202 -134 18 4 105 4 192 0
l160 -7 -123 -124 -124 -124 48 0 c59 0 189 -19 200 -29 4 -4 -12 -13 -35 -20
-88 -27 -270 -130 -307 -175 -12 -14 -9 -15 35 -8 63 9 174 9 247 -2 l58 -8
-17 -26 c-10 -15 -33 -51 -50 -80 l-33 -54 -10 39 c-6 21 -11 48 -11 61 0 12
-3 22 -8 22 -18 0 -85 -136 -102 -210 l-13 -54 -29 34 c-44 52 -126 226 -145
305 -9 39 -19 74 -23 78 -11 13 -39 -80 -42 -138 -1 -27 1 -90 6 -140 l8 -90
-22 20 c-44 39 -156 221 -199 324 -49 118 -86 274 -97 406 l-7 90 -33 -70
c-51 -108 -64 -240 -34 -337 9 -27 9 -27 -15 -12 -52 34 -130 156 -165 259
l-17 50 -21 -42 c-46 -90 -73 -211 -80 -358 l-7 -140 -47 65 c-96 135 -177
322 -194 448 -3 28 -10 52 -15 52 -13 0 -87 -114 -108 -169 -11 -27 -25 -80
-32 -117 l-12 -68 -28 34 c-61 73 -159 297 -159 365 0 72 -43 -48 -55 -155
-12 -106 -14 -126 -20 -225 -4 -55 -9 -102 -11 -104 -15 -15 -163 368 -209
542 l-18 69 -24 -63 c-13 -35 -25 -64 -27 -66 -4 -5 -40 148 -66 284 -21 110
-53 353 -47 359 2 2 12 -31 21 -74 10 -42 22 -83 26 -90 6 -12 75 229 96 335
8 43 20 34 28 -22z m52 -2100 c9 -66 19 -125 23 -132 4 -8 27 14 60 57 45 57
160 165 167 157 1 -1 16 -110 34 -242 42 -325 33 -303 88 -206 49 86 157 231
171 231 5 0 16 -29 25 -64 9 -36 32 -100 51 -142 l36 -78 57 100 c61 104 131
204 144 204 4 0 8 -11 8 -24 0 -66 51 -230 104 -335 l27 -53 45 67 c62 95 126
167 213 242 l76 65 6 -69 c6 -74 37 -185 51 -181 4 2 57 76 117 166 l108 163
7 -80 c7 -85 34 -203 61 -267 l17 -39 18 70 c32 126 74 210 153 313 l41 54 18
-67 c10 -37 23 -76 29 -86 17 -32 -57 -155 -155 -257 l-41 -43 75 32 c75 32
207 79 221 79 4 0 -12 -29 -37 -65 -51 -77 -130 -233 -121 -241 3 -3 45 15 93
40 48 25 89 44 91 43 2 -2 -8 -32 -22 -66 -38 -92 -82 -274 -90 -368 -4 -46
-10 -83 -14 -83 -3 0 -18 22 -33 49 -31 54 -58 148 -58 201 l0 35 -20 -25
c-40 -50 -99 -181 -116 -257 l-17 -77 -29 34 c-102 120 -146 327 -104 488 20
79 20 75 -6 61 -125 -64 -235 -213 -262 -351 -6 -32 -15 -58 -20 -58 -16 0
-79 74 -97 115 -10 22 -21 64 -25 93 l-7 53 -37 -36 c-45 -44 -80 -112 -95
-184 l-11 -55 -71 72 c-100 100 -173 253 -173 365 0 20 -4 37 -9 37 -16 0 -83
-83 -103 -128 -11 -24 -25 -75 -31 -113 l-12 -71 -46 64 c-55 75 -79 120 -79
148 0 29 -14 25 -60 -16 -54 -49 -80 -94 -107 -184 -12 -41 -22 -69 -22 -63
-1 18 -132 154 -142 147 -5 -3 -27 -37 -50 -76 l-42 -72 -43 150 c-23 82 -79
257 -124 389 -63 183 -81 247 -76 273 8 50 61 159 109 222 l42 55 3 -30 c1
-16 9 -84 18 -150z m5049 10 c50 -101 82 -247 71 -324 -3 -25 -26 -106 -50
-180 -107 -327 -178 -615 -189 -766 -4 -51 -63 -233 -72 -223 -1 2 4 64 12
138 28 255 4 497 -55 570 l-18 22 -71 -77 -71 -77 -7 41 c-11 64 -61 155 -110
200 -50 46 -65 51 -65 21 0 -29 -33 -91 -83 -156 l-42 -54 -8 63 c-4 34 -18
85 -31 113 -26 57 -93 137 -107 128 -5 -3 -9 -22 -9 -43 0 -98 -75 -255 -166
-348 -34 -35 -66 -63 -72 -63 -5 0 -12 19 -16 43 -10 61 -49 136 -96 182 l-40
39 0 -37 c0 -55 -37 -143 -80 -189 -21 -22 -43 -37 -48 -34 -5 3 -12 26 -15
50 -9 64 -56 162 -110 227 -42 51 -164 146 -174 135 -2 -2 3 -30 13 -62 22
-76 21 -213 -1 -291 -20 -71 -78 -183 -109 -212 l-23 -21 -21 85 c-21 85 -63
180 -105 237 l-22 30 -7 -59 c-8 -75 -39 -157 -82 -217 l-33 -47 -7 73 c-12
118 -44 261 -85 378 -22 61 -37 110 -34 110 3 0 45 -21 94 -46 50 -26 91 -45
93 -43 7 7 -83 181 -125 243 -22 32 -38 61 -36 63 5 4 163 -51 235 -83 30 -13
57 -23 59 -21 4 5 -55 112 -119 217 l-46 75 22 79 23 80 51 -70 c66 -88 119
-198 140 -285 10 -38 20 -69 23 -69 21 0 67 177 77 294 l7 79 109 -166 c59
-92 112 -167 116 -167 15 0 42 101 49 177 l6 74 65 -54 c85 -70 157 -150 219
-243 l51 -76 40 84 c42 89 90 242 90 289 0 15 4 31 10 34 11 7 100 -118 157
-223 l42 -77 36 78 c19 42 43 106 53 142 9 36 20 65 23 65 19 0 134 -158 186
-255 20 -37 34 -54 37 -45 4 13 17 107 58 432 l11 87 31 -22 c44 -30 132 -122
163 -169 18 -27 29 -35 34 -26 10 19 27 131 35 227 l7 85 34 -40 c19 -21 54
-79 78 -129z m-4650 -1817 l75 -152 51 108 c42 90 53 106 63 95 7 -8 46 -68
86 -134 86 -140 178 -275 189 -275 4 0 31 52 61 115 29 63 56 115 60 115 5 0
29 -36 55 -80 26 -44 48 -80 50 -80 2 0 17 25 35 56 30 54 105 144 120 144 4
0 15 -21 25 -47 31 -85 105 -220 159 -293 30 -40 57 -72 61 -73 4 -1 9 16 11
38 14 155 57 282 137 402 l51 78 7 -75 c8 -86 27 -144 71 -217 34 -56 48 -59
48 -12 0 47 47 176 92 257 23 39 44 72 48 72 3 0 12 -22 19 -48 6 -27 23 -65
37 -85 13 -20 24 -39 24 -42 0 -4 -29 -50 -64 -103 -63 -95 -96 -159 -110
-214 -7 -31 4 -37 25 -12 18 22 123 96 192 134 l58 32 -7 -49 c-11 -83 34
-332 65 -365 4 -4 32 43 64 104 31 61 57 105 57 96 0 -9 -9 -67 -19 -130 -15
-87 -29 -132 -59 -192 l-40 -79 -30 64 c-52 112 -81 232 -82 339 l0 45 -21
-25 c-55 -67 -142 -213 -171 -287 -18 -46 -38 -83 -44 -83 -18 0 -72 64 -93
110 -11 25 -21 64 -21 88 0 23 -3 42 -6 42 -3 0 -25 -14 -49 -31 -45 -33 -78
-75 -112 -142 l-19 -39 -48 53 c-26 29 -57 71 -68 93 l-21 40 -23 -28 c-13
-15 -24 -34 -24 -42 0 -29 -21 -13 -70 54 -50 66 -131 214 -143 261 l-6 25
-19 -25 c-56 -71 -93 -187 -94 -293 l-1 -75 -37 19 c-59 30 -99 69 -133 128
l-30 55 -55 -62 c-30 -33 -57 -61 -62 -61 -13 0 -80 143 -103 224 l-24 79 -20
-26 -20 -26 -17 57 c-26 83 -89 229 -163 376 -56 112 -70 156 -48 156 3 0 39
-68 80 -152z m4239 100 l35 -47 -55 -118 c-122 -259 -171 -405 -181 -547 l-6
-79 -63 169 c-35 93 -66 191 -70 218 -7 46 -8 48 -19 25 -18 -34 -33 -120 -40
-224 -7 -103 -13 -142 -28 -169 -9 -18 -15 -14 -67 44 l-56 63 -31 -55 c-34
-59 -74 -98 -132 -127 l-36 -19 -1 72 c0 84 -30 187 -75 265 l-32 55 -43 -93
c-41 -88 -100 -183 -150 -244 l-23 -28 -14 33 c-8 18 -21 39 -29 46 -14 11
-20 5 -46 -40 -16 -29 -48 -70 -70 -91 l-39 -39 -11 31 c-18 51 -70 119 -116
151 -48 32 -56 28 -56 -28 0 -40 -43 -123 -83 -161 l-36 -34 -11 29 c-47 128
-96 219 -174 323 l-41 55 -7 -85 c-8 -106 -30 -194 -75 -289 l-34 -75 -33 66
c-18 36 -44 81 -59 100 -17 22 -29 56 -36 99 -16 104 -20 140 -15 140 2 0 28
-48 58 -107 l54 -108 15 35 c35 80 50 166 51 277 1 62 2 113 3 113 10 0 179
-108 218 -139 33 -27 51 -36 53 -27 4 19 -37 125 -93 237 l-48 97 32 63 c17
34 31 70 31 80 0 36 17 27 49 -26 44 -73 77 -155 97 -244 15 -69 18 -73 31
-55 47 62 91 183 95 261 2 29 6 53 11 53 9 0 66 -88 101 -157 34 -69 72 -201
81 -287 l7 -69 24 29 c73 87 174 265 203 357 7 20 16 37 20 37 17 0 100 -100
125 -149 15 -28 28 -51 31 -51 2 0 25 36 51 80 25 44 49 82 53 84 4 3 32 -49
61 -115 30 -65 57 -119 62 -119 10 0 122 164 198 290 80 132 87 141 94 109 3
-13 8 -66 11 -118 3 -51 8 -97 11 -102 3 -5 31 30 62 78 92 143 166 253 168
250 1 -1 18 -23 38 -49z m-3524 -1287 c0 -10 18 -77 40 -148 22 -70 43 -147
47 -170 3 -24 7 -43 9 -43 2 0 61 41 132 90 122 87 288 180 319 180 10 0 13
-6 8 -17 -22 -58 -27 -131 -22 -293 3 -96 10 -186 14 -198 9 -23 10 -22 28 20
11 24 56 79 100 124 83 84 167 138 260 168 58 18 174 36 193 28 22 -8 33 -37
187 -461 3 -8 8 -12 10 -9 3 3 30 76 60 164 68 196 115 302 135 307 28 7 134
-3 194 -18 165 -41 338 -173 405 -307 10 -21 20 -35 23 -33 9 10 -3 170 -18
235 -8 36 -26 89 -39 118 -29 63 -28 63 92 21 95 -34 194 -81 284 -135 62 -37
70 -40 64 -21 -2 6 -6 59 -9 115 l-6 104 43 -7 c142 -22 437 -108 437 -128 0
-19 -91 -180 -148 -262 -85 -122 -244 -336 -247 -333 -2 2 1 30 7 63 5 33 7
87 3 120 -8 79 -43 185 -58 179 -18 -7 -76 -84 -109 -145 -17 -30 -58 -117
-93 -194 -34 -77 -71 -155 -83 -174 l-21 -35 -11 30 c-56 155 -138 259 -262
329 -53 30 -62 31 -48 4 24 -43 41 -118 47 -201 3 -49 3 -88 -1 -88 -4 0 -38
26 -74 57 -94 79 -305 213 -337 213 -3 0 3 -17 14 -38 59 -116 67 -279 20
-396 -13 -33 -28 -61 -34 -62 -5 -2 -30 28 -54 67 -25 38 -76 103 -115 145
l-69 76 -31 -58 c-17 -32 -52 -81 -77 -108 l-47 -51 -16 55 c-24 80 -54 234
-62 319 l-7 74 -18 -24 c-44 -58 -121 -212 -153 -307 -19 -57 -36 -106 -39
-108 -8 -8 -125 126 -172 197 -24 37 -59 97 -77 133 -18 36 -35 66 -38 66 -3
0 -21 -43 -39 -96 -23 -64 -37 -91 -42 -82 -18 33 -51 175 -79 343 -29 173
-61 311 -80 344 -8 13 -9 11 -10 -9 0 -36 -42 -120 -80 -164 -29 -32 -122 -96
-141 -96 -4 0 -40 60 -79 133 -105 192 -121 219 -126 214 -3 -3 -15 -60 -27
-127 l-23 -123 -68 132 c-37 73 -66 134 -64 135 1 1 35 21 73 43 39 23 97 64
130 92 67 56 75 59 75 32z"/>
<path d="M37802 35240 c-209 -56 -395 -218 -419 -364 -9 -59 5 -104 50 -153
70 -76 167 -114 360 -139 61 -8 112 -16 114 -17 1 -2 -18 -37 -44 -78 -98
-157 -163 -331 -163 -435 0 -64 19 -142 50 -204 46 -91 154 -179 222 -181 23
0 23 -1 -2 -11 -167 -69 -242 -134 -306 -264 -38 -76 -39 -80 -39 -188 0 -100
3 -117 28 -170 52 -113 137 -191 265 -248 l67 -29 -168 6 c-244 9 -441 28
-563 55 -155 35 -238 138 -238 295 0 66 5 91 27 139 61 132 161 223 356 325
l113 58 -38 8 c-70 13 -198 57 -269 92 -95 48 -195 112 -195 126 0 6 37 47 83
91 84 82 184 155 289 211 l57 31 -202 -1 c-111 0 -281 4 -377 10 -362 20 -575
4 -753 -55 -233 -79 -365 -205 -567 -545 -46 -77 -104 -169 -129 -205 -56 -81
-168 -193 -243 -243 -119 -78 -268 -113 -373 -85 l-50 13 -13 75 c-24 136 -19
128 -55 74 -17 -26 -107 -126 -200 -221 -217 -224 -287 -319 -316 -428 -59
-224 48 -434 298 -585 120 -72 215 -101 593 -186 340 -75 517 -123 633 -169
32 -14 61 -23 63 -20 2 2 -11 32 -30 67 -40 77 -139 178 -234 241 -92 60 -124
93 -124 126 0 54 89 142 190 189 73 34 224 42 320 17 91 -23 228 -90 342 -167
l98 -65 -26 -23 c-13 -14 -39 -52 -56 -87 -74 -152 -36 -381 91 -541 197 -247
589 -299 1048 -138 147 52 275 108 558 246 420 205 591 276 785 324 420 105
807 55 1058 -134 29 -22 57 -38 63 -35 28 18 -20 176 -76 249 -84 110 -310
223 -544 271 -41 9 -77 17 -79 20 -9 9 90 103 144 135 68 41 175 79 223 80 49
0 30 17 -86 77 -90 47 -270 112 -311 113 -34 1 96 105 246 197 l33 20 -78 16
c-96 20 -112 22 -343 42 -206 18 -287 37 -393 93 -202 105 -267 359 -142 549
80 120 262 188 402 150 51 -13 52 -13 41 6 -6 11 -31 40 -57 65 -59 58 -169
109 -336 157 -273 77 -367 155 -411 341 -32 136 -3 232 128 432 45 69 92 150
104 181 29 70 31 150 4 209 -30 66 -111 145 -182 177 -84 38 -210 44 -316 15z"/>
<path d="M33375 32604 c-45 -35 -122 -66 -245 -99 -146 -39 -212 -69 -272
-123 -48 -43 -68 -85 -68 -144 0 -45 34 -126 56 -135 22 -8 16 -23 -8 -23 -13
0 -43 -10 -68 -21 -103 -46 -190 -173 -190 -277 0 -48 2 -53 28 -63 35 -14
154 -6 342 21 263 39 392 30 523 -37 113 -57 195 -172 188 -264 -1 -13 -26 -7
-143 32 -190 64 -279 81 -413 81 -90 0 -125 -5 -191 -26 -172 -55 -304 -181
-339 -327 -6 -24 -3 -27 67 -48 40 -12 126 -31 190 -43 l117 -22 -52 -28 c-74
-41 -133 -103 -170 -178 -29 -59 -32 -73 -32 -160 0 -82 4 -103 27 -153 67
-143 259 -274 407 -278 31 -1 26 -4 -39 -25 -144 -45 -252 -106 -327 -185
-168 -176 -133 -474 65 -550 66 -25 95 -26 695 -21 208 2 381 2 383 -1 3 -2
-24 -10 -58 -17 -161 -31 -361 -110 -478 -190 -225 -153 -318 -445 -207 -653
59 -111 144 -163 382 -233 177 -51 252 -81 344 -136 176 -106 314 -252 410
-437 43 -84 91 -210 91 -242 0 -29 15 -30 71 -2 77 39 185 147 306 307 118
156 171 217 253 290 167 148 423 257 643 273 104 7 106 4 -43 98 -146 91 -335
186 -498 249 -240 94 -237 96 -87 -54 l129 -129 -59 -27 c-126 -55 -284 -180
-360 -285 l-36 -48 -394 310 c-417 328 -445 355 -445 431 0 118 112 243 296
329 181 86 407 106 589 52 65 -19 -166 164 -303 241 -168 93 -360 158 -567
191 -122 20 -348 33 -472 27 -59 -2 -103 0 -103 5 0 29 34 116 59 151 39 53
144 105 271 134 78 18 127 22 280 22 102 1 212 -2 245 -6 l60 -8 -55 35 c-95
61 -267 141 -524 245 -243 98 -418 179 -506 235 l-44 28 25 19 c37 31 170 95
252 123 209 70 514 74 696 10 24 -8 46 -13 48 -11 6 6 -85 84 -147 126 -85 57
-195 110 -303 145 l-99 31 99 22 c166 37 304 52 490 52 160 1 338 -11 386 -26
25 -8 22 13 -18 106 -142 339 -443 635 -792 780 -68 28 -75 29 -96 15 -13 -8
-72 -33 -131 -54 -122 -44 -122 -48 -7 72 l66 67 -27 78 c-15 42 -51 143 -79
225 -28 81 -54 147 -58 147 -3 0 -15 -8 -26 -16z"/>
<path d="M11947 35240 c-151 -48 -258 -191 -241 -319 9 -65 41 -130 124 -256
102 -154 132 -222 138 -317 8 -128 -31 -241 -109 -319 -54 -54 -153 -100 -324
-149 -77 -23 -169 -55 -205 -73 -91 -44 -233 -186 -157 -158 44 17 126 22 181
12 153 -28 266 -133 299 -277 30 -127 -1 -249 -88 -343 -113 -121 -233 -157
-620 -186 -91 -7 -240 -30 -275 -43 -20 -8 -16 -12 48 -50 39 -24 106 -70 148
-104 l77 -61 -74 -19 c-40 -11 -107 -33 -148 -50 -86 -36 -221 -110 -221 -120
0 -5 13 -8 28 -8 88 0 229 -69 315 -154 l60 -59 -129 -32 c-220 -55 -367 -126
-469 -229 -74 -74 -104 -136 -112 -228 l-6 -70 64 47 c188 138 425 204 699
192 326 -14 584 -97 1110 -358 578 -286 852 -371 1145 -356 197 11 348 71 460
184 110 111 169 253 168 408 0 104 -22 175 -78 248 l-35 45 93 60 c203 131
339 182 488 183 131 0 237 -46 322 -140 71 -79 61 -111 -61 -193 -106 -72
-220 -188 -261 -267 -28 -54 -31 -63 -15 -57 168 67 320 110 649 181 298 65
431 100 506 132 187 80 328 200 395 337 38 78 39 83 38 185 0 183 -43 257
-294 518 -95 98 -193 206 -219 241 l-46 62 -17 -97 c-9 -54 -17 -99 -17 -99
-1 -1 -31 -7 -67 -14 -154 -29 -305 29 -466 179 -93 87 -130 138 -268 366
-173 286 -275 399 -439 484 -198 102 -425 129 -881 105 -96 -5 -266 -9 -377
-8 l-202 0 57 -29 c104 -53 196 -120 292 -214 109 -106 111 -88 -22 -169 -93
-56 -215 -106 -321 -130 l-77 -18 107 -53 c187 -94 298 -190 359 -311 26 -52
29 -67 29 -157 0 -84 -4 -107 -22 -141 -26 -49 -92 -111 -141 -131 -89 -37
-345 -69 -627 -78 l-180 -6 60 24 c224 86 354 308 301 514 -43 172 -145 280
-336 361 -25 11 -25 11 -2 11 54 2 144 66 193 137 120 175 88 407 -96 694
l-44 69 67 6 c234 24 399 93 449 188 24 48 20 127 -11 190 -27 55 -113 148
-180 193 -148 101 -349 139 -489 94z"/>
<path d="M16613 32604 c-4 -10 -39 -110 -79 -223 l-72 -206 84 -92 84 -91 -95
34 c-52 18 -112 41 -132 50 -47 21 -49 20 -148 -24 -346 -156 -631 -449 -765
-788 -17 -42 -29 -78 -28 -79 2 -1 46 4 98 11 163 23 491 18 668 -11 74 -12
223 -47 219 -51 -2 -3 -37 -14 -77 -25 -88 -24 -194 -72 -276 -124 -67 -42
-197 -146 -191 -152 2 -2 16 1 31 7 130 49 407 66 561 35 153 -31 336 -104
414 -164 l23 -18 -79 -46 c-109 -64 -230 -119 -508 -232 -229 -92 -462 -203
-515 -245 l-25 -20 45 7 c25 4 135 8 245 8 211 -1 286 -12 426 -64 100 -38
170 -116 185 -209 l6 -39 -188 -1 c-428 -1 -755 -87 -1041 -274 -78 -51 -236
-179 -229 -185 2 -2 34 4 72 13 255 59 580 -35 748 -217 100 -108 108 -207 23
-295 -23 -24 -208 -174 -411 -333 -364 -286 -370 -290 -385 -268 -75 110 -222
233 -351 296 -41 20 -77 37 -80 39 -2 1 51 58 118 125 67 67 122 125 122 129
0 9 -165 -48 -285 -98 -132 -56 -304 -147 -440 -233 l-120 -76 90 -7 c265 -21
551 -158 731 -350 33 -35 106 -126 164 -203 127 -170 224 -269 309 -313 34
-19 64 -32 65 -30 2 1 15 44 30 93 54 177 151 330 293 466 149 143 271 207
524 279 191 55 274 96 344 171 64 70 95 152 95 256 0 315 -248 541 -712 649
-43 10 -78 21 -78 24 0 3 28 4 63 3 193 -7 886 -8 938 -1 154 21 249 135 249
299 0 121 -59 238 -162 319 -68 54 -129 85 -251 124 l-99 33 58 5 c118 11 254
88 333 188 58 73 84 149 85 245 1 70 -3 88 -30 145 -36 76 -101 146 -174 188
l-52 30 73 12 c76 12 208 43 268 62 31 10 33 13 28 44 -27 164 -220 313 -446
344 -137 19 -321 -14 -545 -95 l-99 -36 6 46 c17 120 114 216 274 272 68 23
93 27 188 26 61 -1 169 -10 240 -22 160 -25 344 -36 365 -22 26 18 18 120 -14
185 -42 85 -159 176 -227 176 -23 0 -24 13 -2 31 24 21 53 89 53 128 0 84 -84
178 -197 221 -31 12 -106 35 -167 51 -116 32 -169 53 -223 89 -31 21 -33 21
-40 4z"/>
<path d="M24536 32523 c-44 -140 -159 -321 -262 -414 -38 -34 -128 -99 -137
-99 -2 0 3 28 13 63 10 34 20 97 24 139 l6 76 -78 -76 c-42 -42 -156 -141
-252 -218 -307 -248 -384 -349 -384 -501 0 -40 3 -75 7 -79 11 -11 35 15 105
115 74 107 152 190 201 215 l33 17 -28 -46 c-33 -57 -37 -150 -10 -204 l18
-33 36 62 c46 78 135 168 203 205 l52 28 -6 -24 c-24 -95 -15 -189 26 -268 24
-48 47 -64 47 -33 0 33 69 158 116 210 40 45 126 112 144 112 4 0 1 -23 -6
-52 -24 -90 -13 -189 30 -283 23 -51 80 -125 97 -125 5 0 9 17 9 38 0 89 58
230 131 317 22 28 44 51 48 53 4 1 7 -48 7 -110 -1 -98 2 -120 23 -165 23 -53
89 -123 114 -123 11 0 11 11 0 63 -24 113 -16 207 42 516 43 232 36 391 -23
506 l-26 50 -7 -45 c-15 -102 -76 -193 -186 -281 -65 -51 -185 -129 -199 -129
-3 0 3 15 14 33 28 45 69 163 82 238 14 73 15 253 3 287 -8 21 -11 17 -27 -35z"/>
<path d="M25447 32528 c-17 -147 16 -346 79 -470 14 -27 23 -52 21 -54 -10
-10 -215 137 -265 190 -55 58 -112 163 -112 206 0 55 -16 52 -43 -7 -59 -131
-59 -282 0 -573 38 -193 48 -366 24 -449 -7 -23 -10 -45 -7 -48 10 -10 74 38
98 74 40 61 51 109 50 223 l-1 105 44 -48 c74 -81 144 -248 145 -347 l1 -35
36 40 c93 104 131 281 88 415 -10 31 8 24 76 -27 74 -57 149 -160 177 -247
l19 -59 26 44 c14 24 30 62 36 84 14 50 14 165 1 199 -13 35 -4 33 66 -12 73
-48 142 -122 185 -198 l33 -58 18 40 c31 69 18 174 -28 225 -15 16 -14 17 6
12 30 -8 132 -104 177 -166 138 -193 136 -191 145 -166 16 41 10 132 -10 186
-41 107 -114 184 -372 393 -85 68 -193 162 -241 207 l-85 82 8 -82 c5 -45 16
-106 24 -136 8 -29 13 -55 11 -57 -8 -8 -123 84 -183 147 -92 97 -171 230
-210 352 -10 31 -21 57 -25 57 -4 0 -9 -19 -12 -42z"/>
<path d="M23439 30822 c-155 -118 -286 -361 -348 -644 -10 -49 -17 -88 -14
-88 2 0 16 14 30 30 29 35 97 84 131 94 21 7 22 5 22 -47 0 -90 57 -224 123
-285 l23 -21 17 48 c19 53 78 127 125 154 l31 17 20 -46 c30 -66 86 -139 139
-180 l46 -35 22 67 c13 36 39 91 59 121 l36 55 49 -74 c56 -85 106 -136 119
-122 5 5 19 46 31 92 l23 83 56 -5 c242 -25 342 -4 456 96 49 43 129 138 122
144 -2 3 -46 -16 -98 -40 -128 -61 -204 -79 -304 -74 -136 7 -229 65 -261 161
-23 70 -16 200 14 251 12 20 22 39 22 42 0 9 -77 -9 -122 -28 -46 -19 -93 -65
-201 -191 -57 -68 -96 -82 -177 -67 -151 29 -229 146 -202 305 6 36 27 102 46
147 20 45 34 83 32 85 -2 2 -32 -18 -67 -45z"/>
<path d="M26470 30867 c0 -2 15 -37 34 -78 56 -123 68 -207 41 -297 -30 -100
-119 -163 -235 -165 -73 -2 -93 12 -177 118 -72 93 -130 137 -207 160 -75 23
-79 21 -57 -23 24 -48 39 -126 34 -183 -9 -108 -63 -179 -169 -219 -50 -18
-73 -21 -149 -17 -98 4 -173 26 -289 84 -37 19 -70 33 -72 31 -7 -7 85 -116
127 -151 108 -88 213 -114 390 -96 61 6 113 9 115 6 3 -2 17 -46 31 -97 l27
-93 51 55 c29 31 66 79 82 108 l30 52 25 -33 c35 -46 58 -94 78 -157 l16 -52
41 29 c54 39 107 106 138 174 l26 57 28 -15 c48 -24 117 -110 131 -161 l14
-48 39 45 c65 74 102 161 111 265 3 27 5 50 5 51 1 1 15 -3 32 -9 17 -6 57
-35 90 -66 68 -63 66 -74 23 99 -55 225 -168 439 -290 547 -49 44 -114 89
-114 79z"/>
<path d="M25155 29435 c-1 -188 -11 -268 -61 -482 -13 -57 -24 -105 -24 -108
0 -3 33 34 74 83 224 270 448 337 697 212 114 -58 177 -131 283 -328 36 -67
77 -139 92 -160 l26 -37 -6 78 c-13 146 -77 352 -176 565 l-49 102 -78 1 c-43
0 -85 2 -93 3 -8 2 -52 6 -97 10 -110 8 -339 68 -428 111 -46 22 -87 51 -116
82 l-44 48 0 -180z"/>
<path d="M24744 29565 c-54 -57 -137 -98 -282 -139 -141 -40 -236 -55 -407
-64 l-129 -7 -53 -119 c-95 -211 -154 -405 -168 -552 l-6 -69 20 25 c11 14 44
68 72 120 142 261 195 324 321 383 98 46 164 60 259 55 67 -4 91 -11 161 -46
91 -45 199 -137 282 -241 27 -33 51 -59 53 -57 2 2 -7 52 -21 112 -45 198 -60
320 -60 487 -1 86 -1 157 -1 157 0 -1 -19 -21 -41 -45z"/>
<path d="M24233 28893 c-55 -19 -130 -87 -170 -155 -88 -145 -90 -367 -5 -461
103 -114 360 -58 552 120 115 106 137 182 85 289 -82 168 -299 265 -462 207z"/>
<path d="M25444 28886 c-74 -27 -105 -49 -168 -115 -89 -96 -111 -191 -63
-273 34 -59 131 -148 215 -197 184 -110 356 -113 436 -8 77 100 68 304 -19
453 -34 58 -116 129 -172 148 -66 23 -156 20 -229 -8z"/>
<path d="M23723 28104 c12 -153 79 -325 179 -457 95 -128 263 -268 423 -354
l59 -32 52 49 c58 55 114 75 182 66 56 -8 134 -47 194 -97 26 -21 48 -39 50
-39 3 0 -74 784 -81 829 -1 3 -13 -7 -28 -21 -98 -90 -246 -148 -378 -148
-167 0 -402 91 -573 222 -92 70 -86 71 -79 -18z"/>
<path d="M26105 28120 c-228 -169 -489 -248 -681 -207 -89 19 -152 49 -231
109 -35 26 -63 42 -64 35 0 -7 -2 -19 -3 -27 -2 -8 -7 -51 -10 -95 -4 -44 -9
-93 -11 -110 -3 -16 -7 -55 -10 -85 -3 -30 -14 -145 -25 -254 -27 -274 -31
-255 33 -203 61 49 144 88 205 95 59 6 119 -19 171 -72 l44 -45 51 26 c213
106 433 318 529 508 41 82 78 215 84 303 3 45 4 82 2 82 -2 -1 -40 -27 -84
-60z"/>
<path d="M11865 26820 c-180 -48 -315 -138 -535 -359 -91 -91 -203 -208 -249
-258 -97 -108 -105 -102 99 -78 69 8 132 15 140 15 8 0 -59 -25 -150 -56 -303
-102 -490 -210 -637 -368 -116 -124 -173 -272 -173 -445 1 -208 88 -376 235
-452 l63 -33 -34 -40 c-120 -140 -98 -391 49 -552 56 -62 170 -123 277 -150
84 -21 269 -21 375 0 44 9 83 16 88 16 4 0 -6 -18 -22 -41 -85 -116 -54 -318
69 -452 92 -100 238 -155 427 -161 102 -3 255 6 315 20 l28 6 -20 -44 c-74
-164 53 -397 250 -455 70 -21 195 -20 280 2 67 17 219 86 279 126 l33 22 -16
-31 c-61 -119 -23 -281 97 -409 164 -175 399 -197 780 -73 68 22 126 40 128
40 2 0 5 -26 5 -58 3 -94 36 -164 118 -247 112 -114 230 -159 406 -158 116 1
213 21 389 78 l134 44 58 -54 c172 -158 450 -192 653 -79 l46 26 0 -34 c0
-144 110 -312 245 -374 141 -65 271 -55 437 34 3 1 2 -16 -4 -40 -31 -134 52
-316 193 -422 218 -164 477 -166 886 -4 l152 60 44 -36 c169 -138 446 -179
672 -99 79 29 185 94 230 143 l30 32 -60 -9 c-145 -20 -249 -3 -314 53 -66 57
-99 152 -71 205 9 16 6 15 -26 -6 -90 -61 -226 -40 -333 52 -73 62 -121 187
-121 315 0 58 18 217 25 226 2 2 25 -12 52 -31 107 -77 201 -108 323 -108 148
1 273 46 361 132 37 36 48 43 43 27 -15 -46 -6 -171 17 -233 73 -196 211 -305
559 -438 207 -79 295 -101 410 -100 169 1 231 36 470 268 188 182 234 212 413
264 275 80 377 181 617 611 223 399 304 654 324 1018 4 72 -7 88 -25 35 -47
-146 -192 -343 -329 -447 -83 -63 -81 -63 -72 -14 10 60 6 517 -5 551 -8 26
-13 13 -46 -108 -65 -241 -180 -499 -313 -700 l-59 -90 -5 122 -5 123 -49 -93
c-116 -219 -232 -389 -352 -516 -66 -70 -193 -181 -207 -181 -2 0 20 97 50
216 29 119 52 218 50 221 -3 2 -25 -24 -50 -59 -93 -130 -268 -279 -412 -351
-124 -61 -122 -64 -59 69 30 64 53 118 52 119 -2 1 -95 -40 -208 -91 -113 -52
-208 -94 -212 -94 -3 0 25 77 63 172 38 95 69 175 69 179 0 4 -55 -17 -121
-47 -67 -30 -124 -53 -126 -50 -25 24 -31 267 -9 358 9 40 10 55 2 51 -6 -4
-63 -44 -127 -90 -65 -46 -119 -83 -122 -83 -3 0 14 46 39 101 25 56 43 103
41 105 -2 2 -39 -19 -82 -46 -44 -27 -81 -47 -83 -46 -2 3 201 391 274 524 28
50 26 49 -76 -32 -128 -104 -284 -214 -426 -302 -76 -46 -139 -82 -141 -80 -3
2 40 84 95 183 54 98 104 188 110 200 l12 21 -78 -24 c-121 -38 -126 -39 -116
-23 4 8 57 88 117 179 145 221 141 209 68 169 -34 -19 -98 -60 -143 -93 -45
-32 -77 -52 -71 -45 151 189 211 268 289 385 52 77 94 143 94 146 0 3 -64 -30
-142 -74 -79 -44 -161 -89 -183 -100 l-40 -20 31 33 c40 42 116 151 110 157
-3 2 -55 -19 -116 -47 -61 -28 -113 -51 -116 -51 -4 0 207 265 425 535 12 14
7 13 -19 -6 -157 -116 -298 -196 -445 -252 -140 -54 -146 -54 -80 -4 33 24 83
69 112 98 51 53 136 169 130 176 -2 2 -28 -8 -58 -21 -75 -33 -190 -64 -279
-74 -41 -5 -77 -8 -79 -6 -2 2 19 41 46 86 134 223 348 576 362 598 8 14 -22
-9 -68 -50 -106 -96 -178 -154 -266 -216 -134 -96 -360 -222 -373 -209 -12 11
52 179 115 305 35 69 90 162 122 208 33 45 58 82 55 82 -2 0 -53 -24 -112 -54
-135 -68 -256 -118 -402 -167 -63 -22 -116 -39 -118 -39 -2 0 64 52 145 116
257 203 608 495 787 657 l31 28 -50 -27 c-206 -114 -629 -377 -902 -562 -84
-56 -153 -99 -152 -95 0 5 62 91 138 193 76 102 137 186 136 188 -2 2 -87 -31
-191 -72 -103 -42 -189 -74 -190 -73 -2 2 52 44 119 94 142 106 281 222 387
322 l75 72 -290 -147 c-159 -81 -337 -172 -395 -202 l-105 -55 45 49 c43 46
79 108 95 162 7 23 6 23 -42 16 -26 -4 -78 -17 -115 -29 -38 -13 -68 -22 -68
-21 0 1 184 132 409 291 225 160 408 291 407 292 -1 2 -56 -27 -122 -62 -277
-151 -1114 -550 -1114 -531 0 3 235 222 394 368 l41 38 -65 -24 c-36 -13 -89
-33 -117 -44 -29 -11 -53 -18 -53 -15 0 2 96 51 213 109 116 58 203 103 192
101 -11 -3 -38 -8 -60 -12 -22 -4 -89 -25 -148 -47 -59 -22 -110 -38 -113 -36
-11 12 12 40 59 71 29 19 140 89 247 157 107 68 200 127 205 132 39 38 -724
-140 -980 -228 -11 -3 3 9 30 29 57 40 148 118 142 123 -1 2 -25 -3 -52 -11
-47 -15 -165 -21 -165 -9 0 3 32 46 70 95 39 49 65 89 59 89 -6 0 -160 -41
-341 -91 -181 -50 -332 -89 -334 -87 -2 2 27 27 64 55 84 65 184 154 179 160
-11 11 -516 -103 -887 -200 -176 -47 -974 -261 -1126 -303 -125 -34 -184 -118
-163 -231 19 -101 100 -187 207 -220 64 -20 265 -24 427 -10 239 22 654 92
850 143 11 3 -27 -19 -85 -48 -301 -152 -592 -375 -655 -502 -18 -35 -25 -67
-25 -105 0 -146 134 -226 365 -217 148 6 580 105 955 218 74 22 142 43 150 45
8 2 -12 -10 -45 -28 -251 -132 -523 -294 -621 -370 -120 -92 -156 -212 -101
-333 77 -167 252 -248 461 -211 106 19 195 55 429 174 210 106 330 151 408
151 32 0 30 -2 -36 -35 -136 -68 -248 -181 -320 -325 -47 -93 -65 -162 -71
-270 -5 -86 -3 -99 18 -140 48 -93 132 -98 338 -22 259 96 477 188 700 296
l109 53 -83 -79 c-131 -122 -177 -208 -178 -330 0 -83 33 -163 83 -201 69 -51
119 -62 304 -61 178 0 287 16 435 65 34 11 64 18 67 15 3 -3 -11 -42 -30 -88
-83 -194 -117 -335 -124 -518 -4 -105 -2 -154 12 -220 29 -142 86 -266 167
-363 l40 -49 -33 -34 c-49 -50 -148 -97 -207 -97 -150 -2 -277 104 -319 265
-15 59 -16 78 -5 175 28 252 96 461 199 613 34 50 -70 -56 -132 -135 -81 -103
-164 -181 -217 -205 -24 -10 -80 -24 -126 -30 -188 -28 -375 39 -461 163 -59
87 -82 238 -52 354 15 63 63 138 100 158 36 19 11 19 -86 -1 -104 -21 -192
-54 -367 -136 -197 -92 -276 -112 -420 -105 -224 10 -378 96 -378 213 0 56 30
121 134 291 44 73 79 135 76 138 -2 2 -69 -50 -148 -116 -277 -231 -375 -268
-553 -208 -162 54 -260 174 -261 319 -1 89 38 167 146 289 110 125 217 255
213 259 -7 8 -161 -65 -290 -138 -209 -117 -228 -124 -365 -125 -110 0 -118 2
-185 33 -209 98 -283 304 -181 502 27 52 155 190 221 239 17 12 -12 1 -64 -24
-275 -136 -498 -161 -677 -76 -164 78 -247 273 -179 420 31 66 58 97 169 196
78 69 161 163 153 171 -2 2 -41 -12 -88 -32 -201 -85 -375 -107 -495 -63 -77
28 -171 121 -196 194 -28 78 -31 142 -14 219 47 203 223 368 505 476 154 59
153 59 109 59 -65 2 -258 -29 -377 -60 -64 -16 -228 -68 -366 -115 -299 -102
-388 -124 -498 -124 -138 0 -248 43 -332 130 -39 40 -40 43 -40 108 0 98 35
161 160 289 112 115 111 118 -20 83z"/>
<path d="M19922 26475 c-140 -25 -278 -77 -617 -233 -166 -76 -253 -107 -389
-141 l-110 -28 45 -30 c164 -113 392 -182 588 -178 39 1 70 0 68 -1 -1 -1 -36
-25 -78 -52 -152 -99 -291 -254 -376 -417 -42 -82 -96 -238 -107 -311 l-6 -41
78 76 c76 77 159 133 217 147 l30 7 -36 -40 c-87 -96 -138 -223 -146 -363 l-6
-95 47 43 c49 46 146 97 205 108 31 6 34 5 27 -12 -31 -80 -31 -238 0 -330 9
-27 18 -50 19 -52 2 -2 36 24 77 58 133 113 310 211 474 265 75 25 206 56 211
51 2 -1 -21 -31 -50 -67 -73 -87 -158 -160 -387 -331 -363 -270 -503 -459
-516 -698 -5 -83 -4 -84 12 -60 48 69 204 204 219 188 3 -3 -1 -33 -44 -358
-74 -548 -81 -604 -81 -618 0 -25 226 107 350 206 95 75 195 169 261 244 56
63 68 73 63 51 -18 -75 -70 -227 -105 -300 l-38 -83 42 21 c106 54 308 202
420 308 31 30 57 51 57 46 0 -4 -21 -84 -46 -177 -26 -93 -44 -171 -41 -175
10 -10 118 83 179 155 80 93 160 238 281 507 102 227 184 381 246 460 66 83
191 201 357 336 234 189 381 347 419 451 5 12 -71 -20 -237 -98 -133 -64 -272
-129 -308 -146 l-64 -29 100 103 c55 57 121 135 147 174 53 81 132 233 124
241 -3 2 -38 -17 -79 -44 -40 -27 -90 -59 -110 -71 l-36 -23 55 83 c89 131
177 332 199 453 l7 40 -56 -52 c-31 -28 -87 -72 -124 -96 -63 -42 -203 -117
-218 -117 -3 0 20 22 52 49 198 166 333 402 358 628 l6 58 -24 -55 c-69 -162
-161 -252 -487 -473 -210 -143 -294 -211 -363 -294 -53 -64 -105 -164 -114
-218 l-6 -35 65 29 c35 16 126 47 201 69 l136 38 -20 -27 c-20 -29 -113 -112
-189 -169 -80 -60 -160 -131 -181 -161 l-20 -29 49 25 c63 32 332 80 332 60 0
-8 -104 -173 -152 -242 -83 -117 -212 -265 -337 -384 -68 -65 -127 -117 -129
-114 -6 6 95 215 155 320 25 44 77 124 114 178 38 53 67 97 64 97 -2 0 -84
-38 -181 -85 -97 -47 -178 -84 -181 -82 -7 8 66 275 102 372 48 128 149 327
220 434 31 46 55 84 53 86 -2 1 -151 -64 -333 -145 -181 -81 -332 -145 -334
-144 -6 5 100 141 173 220 185 202 465 386 731 479 l100 35 -360 -5 c-198 -3
-388 -8 -422 -10 -35 -3 -63 -1 -63 4 0 12 111 142 140 163 43 31 118 39 278
28 81 -6 174 -15 207 -20 141 -23 307 -3 353 44 34 34 -166 150 -382 221 -295
97 -621 137 -824 100z"/>
<path d="M38114 26769 c140 -131 215 -276 187 -362 -37 -112 -196 -197 -368
-197 -114 0 -226 28 -507 125 -325 112 -589 176 -729 175 l-52 -1 100 -38
c152 -59 188 -76 274 -131 105 -67 199 -168 246 -264 32 -64 38 -87 42 -163 4
-72 1 -99 -15 -146 -84 -236 -330 -292 -670 -152 -48 20 -93 38 -99 42 -41 18
5 -39 135 -167 174 -170 194 -202 195 -315 0 -63 -4 -83 -31 -138 -69 -139
-216 -219 -401 -218 -132 0 -257 35 -430 120 -46 23 -86 40 -88 38 -2 -2 23
-24 55 -49 147 -114 231 -267 219 -399 -17 -195 -193 -339 -412 -339 -93 0
-173 25 -290 90 -132 74 -355 183 -361 177 -6 -6 60 -89 161 -202 111 -124
142 -167 171 -229 23 -51 26 -68 22 -130 -12 -186 -180 -325 -399 -329 -60 -1
-77 4 -143 37 -68 35 -177 116 -348 261 -38 31 -68 51 -68 45 0 -6 33 -66 74
-133 114 -189 130 -223 130 -289 1 -53 -2 -60 -37 -96 -84 -86 -223 -127 -402
-119 -128 5 -181 22 -375 114 -143 69 -246 106 -350 128 -100 21 -106 20 -66
-16 108 -95 130 -339 42 -478 -85 -135 -281 -210 -472 -182 -137 20 -208 64
-306 189 -85 110 -149 182 -170 193 -13 7 -8 -5 17 -39 96 -134 186 -452 187
-663 2 -202 -134 -358 -316 -361 -78 -1 -150 30 -210 91 l-39 39 46 59 c60 76
110 177 143 288 23 78 27 109 27 230 1 198 -37 372 -128 586 -19 43 -32 79
-30 79 3 0 51 -13 108 -30 245 -72 544 -79 663 -17 52 27 100 89 114 147 35
146 -32 298 -192 431 -35 29 -56 50 -48 47 8 -4 108 -49 221 -102 304 -140
649 -273 751 -291 51 -8 109 9 141 43 84 88 40 356 -89 538 -63 90 -165 178
-257 224 l-79 40 40 0 c74 0 203 -50 447 -171 160 -80 267 -126 320 -140 99
-26 240 -28 305 -4 104 36 202 130 235 225 34 96 6 198 -76 277 -75 71 -373
254 -612 375 -103 53 -120 69 -46 43 143 -51 529 -153 798 -212 142 -31 184
-37 291 -36 106 0 134 3 183 22 72 28 115 64 138 116 42 91 9 188 -99 294
-128 126 -318 259 -527 369 -77 40 -131 71 -120 68 468 -120 1120 -187 1280
-132 84 29 139 76 175 150 28 57 32 73 28 125 -5 73 -40 124 -104 152 -23 11
-127 41 -231 69 -103 27 -352 93 -553 148 -483 132 -798 211 -1062 266 -119
25 -220 46 -225 46 -13 0 61 -71 149 -143 48 -39 86 -72 84 -74 -2 -2 -151 37
-331 87 -180 50 -331 90 -336 88 -5 -2 21 -41 56 -87 36 -46 65 -88 65 -92 0
-19 -132 -8 -195 16 -31 12 51 -70 113 -112 28 -20 50 -38 49 -40 -2 -2 -24 4
-48 13 -190 68 -900 236 -938 222 -5 -2 95 -68 221 -148 250 -157 288 -184
288 -206 0 -19 -1 -19 -115 26 -85 33 -215 65 -215 54 0 -2 24 -13 53 -26 76
-32 349 -170 344 -174 -2 -2 -49 14 -105 35 -56 22 -102 38 -102 36 0 -2 343
-324 405 -378 29 -26 29 -27 5 -18 -162 58 -982 454 -1177 568 -24 14 -43 23
-43 21 0 -3 184 -135 409 -294 225 -159 408 -290 407 -291 0 0 -32 9 -71 22
-96 32 -155 41 -155 23 0 -25 51 -122 87 -166 l37 -45 -250 128 c-137 70 -309
159 -382 197 -74 38 -135 68 -137 66 -12 -11 367 -330 515 -434 44 -30 80 -57
80 -59 0 -2 -89 32 -197 76 -108 43 -198 77 -200 76 -1 -2 57 -84 130 -183 73
-98 137 -185 141 -193 11 -18 8 -15 -109 65 -265 182 -975 619 -975 600 0 -14
570 -492 812 -680 71 -55 126 -101 124 -103 -6 -6 -244 81 -351 128 -55 24
-141 64 -191 90 l-92 47 59 -81 c69 -96 187 -328 224 -441 15 -43 24 -80 22
-83 -7 -7 -158 71 -261 135 -127 78 -265 184 -375 288 -52 49 -92 85 -89 79 3
-5 25 -41 48 -80 151 -248 380 -627 380 -631 0 -6 -87 6 -169 23 -74 15 -143
37 -214 68 l-39 16 23 -41 c49 -86 138 -179 254 -265 19 -13 18 -14 -10 -6
-150 43 -371 157 -517 267 -32 24 -58 42 -58 40 0 -2 97 -124 215 -271 119
-147 214 -269 212 -271 -2 -3 -52 19 -112 46 -59 28 -110 48 -113 46 -7 -8 45
-83 96 -138 25 -26 43 -48 40 -48 -3 0 -83 43 -177 96 -95 52 -175 93 -178 91
-11 -11 175 -277 305 -436 l86 -104 -80 56 c-69 48 -199 127 -210 127 -2 0 32
-53 75 -117 141 -215 173 -265 169 -269 -3 -2 -46 9 -97 25 -54 17 -91 24 -88
18 2 -7 52 -97 110 -202 58 -104 104 -191 102 -193 -4 -5 -193 110 -290 176
-88 61 -228 166 -318 238 l-59 47 27 -54 c16 -30 76 -144 135 -254 59 -110
115 -215 124 -233 l17 -33 -23 12 c-13 7 -51 30 -86 51 -34 21 -64 38 -67 38
-2 0 16 -46 41 -101 25 -56 43 -103 41 -105 -2 -2 -59 36 -128 85 -68 49 -125
88 -127 86 -2 -2 1 -20 7 -42 19 -64 24 -212 12 -293 -7 -41 -14 -76 -16 -79
-3 -2 -46 15 -97 39 -51 23 -108 49 -125 56 l-33 14 19 -47 c10 -27 42 -106
70 -177 29 -71 50 -130 48 -133 -3 -2 -98 39 -212 92 -115 52 -210 95 -211 95
-2 0 22 -52 52 -116 30 -64 53 -119 50 -121 -2 -3 -44 15 -93 38 -166 81 -345
236 -445 385 -21 31 -38 53 -38 50 0 -4 25 -105 55 -226 30 -121 55 -222 55
-225 0 -10 -59 34 -120 89 -143 129 -299 340 -425 576 -37 69 -68 126 -69 127
-1 1 -1 -55 -1 -123 l0 -126 -26 31 c-45 55 -151 241 -210 371 -69 151 -111
268 -149 414 -16 65 -30 101 -33 90 -19 -67 -26 -365 -12 -523 l7 -84 -38 29
c-159 117 -284 275 -360 456 l-35 83 5 -120 c17 -381 131 -690 445 -1205 57
-93 99 -147 166 -215 106 -107 163 -138 347 -193 69 -21 152 -54 184 -73 32
-19 129 -103 219 -190 88 -86 185 -172 215 -191 176 -112 344 -98 741 62 344
138 509 327 497 567 l-4 82 50 -46 c94 -84 203 -123 348 -124 126 -1 204 24
320 102 42 28 58 34 62 24 2 -7 10 -59 16 -115 17 -152 -7 -274 -69 -361 -93
-130 -267 -177 -376 -104 l-36 25 7 -22 c14 -44 5 -100 -23 -147 -58 -94 -172
-132 -329 -111 -47 6 -88 9 -91 7 -2 -3 24 -28 59 -57 155 -126 359 -178 565
-145 122 21 205 56 299 127 l52 39 141 -56 c217 -87 347 -117 506 -119 109 -1
141 3 200 21 240 76 421 313 385 503 -5 25 -9 48 -10 52 0 3 26 -7 58 -22 268
-134 579 30 624 328 l10 71 52 -29 c117 -66 308 -79 446 -31 76 27 189 99 223
142 l24 31 134 -45 c74 -25 170 -53 214 -62 107 -22 274 -23 351 0 200 57 343
211 352 378 3 51 8 67 18 63 57 -22 253 -79 318 -93 110 -24 290 -23 371 1
154 46 275 165 319 315 21 72 20 130 -3 195 l-19 54 52 -32 c196 -126 423
-164 579 -97 68 29 152 113 189 189 29 58 33 77 33 142 0 53 -6 85 -18 108
-10 19 -17 35 -15 37 2 1 32 -2 68 -7 109 -16 356 -14 431 5 144 35 242 97
305 191 95 143 103 312 19 422 l-24 32 53 -14 c195 -51 429 -31 580 49 159 85
256 259 244 442 -5 79 -37 161 -82 209 -15 15 -26 29 -24 31 2 1 26 14 53 28
239 121 315 489 162 782 -46 87 -189 227 -307 300 -108 67 -266 137 -455 201
-144 49 -148 48 93 20 56 -7 102 -8 102 -3 0 5 -79 94 -176 198 -240 259 -353
356 -504 437 -82 44 -224 92 -272 92 -29 0 -28 -2 46 -71z"/>
<path d="M29680 26470 c-333 -52 -627 -158 -765 -275 l-40 -33 60 -28 c78 -36
184 -42 355 -20 69 9 184 17 255 18 116 2 134 -1 172 -20 39 -20 153 -146 153
-169 0 -5 -17 -9 -37 -8 -21 2 -209 5 -418 8 l-380 6 83 -29 c181 -63 383
-174 537 -295 98 -76 285 -268 343 -353 l43 -62 -43 19 c-24 10 -167 73 -318
141 -151 67 -285 126 -297 131 -17 6 -9 -12 42 -89 77 -118 164 -291 216 -430
41 -109 102 -334 97 -357 -2 -10 -53 10 -177 71 -96 46 -176 83 -177 81 -2 -2
16 -30 39 -63 96 -133 221 -354 281 -497 l16 -39 -48 40 c-137 115 -304 298
-418 458 -75 106 -154 232 -154 247 0 22 281 -30 336 -63 19 -10 34 -16 34
-12 0 13 -121 126 -200 187 -76 59 -200 174 -200 186 0 13 306 -83 357 -112
20 -11 38 -18 40 -15 11 10 -41 140 -78 195 -75 112 -167 188 -517 426 -161
109 -305 253 -355 355 -45 91 -49 69 -13 -72 50 -199 174 -390 346 -532 l45
-37 -40 16 c-70 28 -188 102 -277 174 -95 77 -92 81 -51 -59 32 -109 98 -248
160 -342 27 -40 53 -79 57 -86 7 -11 -53 25 -190 114 -33 22 -31 7 12 -79 61
-121 144 -238 240 -334 51 -51 91 -93 89 -93 -1 0 -82 38 -180 85 -97 47 -178
85 -181 85 -2 0 -47 21 -101 48 -54 26 -110 53 -126 60 l-27 12 16 -33 c66
-128 181 -250 414 -437 341 -275 417 -375 599 -785 135 -304 212 -440 313
-550 49 -54 145 -131 153 -123 2 2 -16 77 -41 167 -24 90 -43 168 -42 172 2 5
41 -25 88 -67 47 -41 119 -99 160 -128 91 -66 252 -167 257 -163 2 2 -12 38
-31 80 -36 78 -88 226 -101 286 -6 30 3 23 101 -79 119 -123 225 -213 349
-294 83 -55 207 -126 219 -126 4 0 5 15 2 33 -3 17 -13 86 -21 152 -9 66 -25
183 -35 260 -34 247 -70 526 -70 536 0 14 69 -24 118 -66 24 -21 58 -60 77
-87 18 -27 35 -46 38 -41 10 16 -2 134 -19 191 -37 129 -136 277 -263 394 -34
32 -124 104 -199 159 -75 56 -162 120 -192 143 -103 77 -291 268 -277 282 6 6
160 -34 237 -62 160 -57 335 -160 469 -275 25 -21 48 -36 52 -34 10 7 37 113
44 175 6 51 -1 115 -21 194 -7 28 -6 29 25 23 55 -11 155 -64 206 -109 l48
-43 -6 86 c-11 140 -54 253 -136 357 -23 29 -36 52 -30 52 35 0 161 -82 228
-148 l74 -74 -8 49 c-3 26 -20 88 -36 137 -79 238 -232 439 -441 578 -40 26
-68 48 -63 48 95 3 201 12 245 20 134 27 278 85 388 158 l55 37 -64 13 c-119
24 -276 81 -498 181 -400 181 -499 211 -711 217 -110 3 -175 -1 -270 -16z"/>
<path d="M24931 24530 c-21 -35 -36 -77 -66 -184 -9 -32 -18 -57 -19 -55 -2 2
-6 59 -9 127 -3 68 -8 126 -11 129 -3 3 -22 -8 -43 -24 -127 -98 -341 -232
-488 -305 -226 -113 -330 -110 -327 9 0 27 6 61 12 77 6 16 9 30 7 32 -2 2
-53 -29 -115 -70 -167 -111 -285 -151 -361 -123 -73 26 -121 133 -121 266 l0
65 -70 -69 c-39 -39 -100 -112 -136 -162 l-66 -92 -46 23 c-136 69 -319 93
-472 62 -46 -10 -100 -24 -120 -33 l-35 -15 30 -23 c17 -13 94 -72 171 -132
220 -168 507 -418 469 -409 -25 6 -372 66 -383 66 -4 0 22 -30 58 -67 44 -46
85 -103 125 -177 114 -205 193 -274 325 -284 84 -6 157 15 345 98 157 70 230
90 345 97 76 5 195 -6 247 -23 10 -3 -5 7 -33 24 -85 48 -172 121 -230 190
-29 36 -52 67 -50 69 2 2 119 -19 261 -47 143 -27 260 -48 261 -47 2 1 -14 29
-33 61 -37 59 -105 207 -99 213 6 6 130 -43 216 -87 85 -43 248 -148 270 -176
41 -49 52 22 25 163 -17 87 -20 197 -6 188 18 -11 152 -279 192 -384 9 -22 13
-18 59 59 59 96 198 302 234 345 l25 30 1 -36 c0 -25 -19 -75 -60 -158 -59
-118 -87 -206 -69 -217 5 -3 28 10 52 29 69 56 157 112 244 156 91 45 214 94
221 87 6 -6 -80 -185 -111 -232 -15 -21 -25 -39 -24 -41 2 -1 119 20 262 47
142 28 259 49 261 47 7 -7 -104 -133 -149 -170 -26 -21 -77 -56 -114 -79 -38
-22 -60 -37 -50 -34 50 17 171 28 248 23 115 -7 189 -28 343 -96 193 -85 228
-96 326 -96 71 0 93 4 134 25 62 32 122 98 182 203 85 149 126 207 176 252 28
25 45 45 39 45 -6 0 -89 -13 -184 -30 -94 -16 -183 -32 -197 -34 -22 -4 -21 0
16 33 167 148 301 259 434 362 85 66 169 131 185 144 l30 23 -35 15 c-20 9
-74 23 -120 33 -153 31 -336 7 -472 -62 l-48 -24 -43 65 c-53 79 -172 219
-202 239 l-23 15 -5 -87 c-6 -108 -20 -153 -58 -197 -40 -45 -93 -60 -162 -45
-70 14 -194 78 -294 150 -46 32 -83 57 -83 55 0 -2 7 -31 16 -65 44 -172 -67
-190 -336 -55 -119 60 -336 196 -462 292 l-58 43 -1 -50 c-1 -28 -3 -54 -4
-60 -1 -5 -3 -45 -4 -87 -2 -90 -7 -85 -45 48 -15 53 -38 109 -51 125 l-23 28
-21 -34z"/>
</g>
</svg>
